# Blender v2.77 (sub 0) OBJ File: 'arch_02.obj'
# www.blender.org
mtllib arch_01.mtl
o Flat_Arch_Sphere.001
v 0.000000 0.000499 0.401821
v 0.141422 0.000499 0.401821
v 0.141422 0.000499 -0.398179
v 0.000000 0.000499 -0.398179
v 0.453991 0.184399 0.401821
v 0.309018 0.244449 0.401821
v 0.309018 0.244449 -0.398179
v 0.453991 0.184399 -0.398179
v -0.707107 0.000499 -0.398179
v -0.565686 0.000499 -0.398179
v -0.587786 0.102409 -0.398179
v 0.565686 0.000499 0.401821
v 0.707108 0.000499 0.401821
v 0.707107 0.000499 -0.398179
v 0.565686 0.000499 -0.398179
v -0.309018 0.244449 0.401821
v -0.453991 0.184399 0.401821
v -0.453991 0.184399 -0.398179
v -0.309018 0.244449 -0.398179
v -0.587786 0.102409 0.401821
v -0.707107 0.000499 0.401821
v -0.141421 0.000499 0.401821
v -0.141421 0.000499 -0.398179
v 0.587786 0.102409 -0.398179
v -0.424264 0.000499 0.401821
v -0.282843 0.000499 0.401821
v -0.282843 0.000499 -0.398179
v -0.424264 0.000499 -0.398179
v 0.424265 0.000499 -0.398179
v 0.000000 0.293392 0.401820
v -0.156435 0.281080 0.401821
v -0.156435 0.281080 -0.398179
v -0.000001 0.293392 -0.398180
v -0.565686 0.000499 0.401821
v 0.282843 0.000499 0.401821
v 0.282843 0.000499 -0.398179
v 0.424265 0.000499 0.401821
v 0.156435 0.281080 -0.398179
v 0.587786 0.102409 0.401821
v 0.156435 0.281080 0.401821
vn 0.0000 -1.0000 -0.0000
vn 0.3827 0.9239 0.0000
vn 0.0000 0.0000 -1.0000
vn -0.3827 0.9239 0.0000
vn -0.6494 0.7604 0.0000
vn -0.0785 0.9969 0.0000
vn 0.6494 0.7604 -0.0000
vn 0.0785 0.9969 0.0000
vn -0.2334 0.9724 0.0000
vn -0.5225 0.8526 0.0000
vn 0.5225 0.8526 0.0000
vn 0.0000 -0.0000 1.0000
vn 0.2334 0.9724 0.0000
usemtl None
s 1
f 1//1 4//1 3//1 2//1
f 5//2 8//2 7//2 6//2
f 9//3 11//3 10//3
f 12//1 15//1 14//1 13//1
f 16//4 19//4 18//4 17//4
f 20//5 11//5 9//5 21//5
f 22//1 23//1 4//1 1//1
f 14//3 15//3 24//3
f 25//1 28//1 27//1 26//1
f 8//3 24//3 15//3 29//3
f 30//6 33//6 32//6 31//6
f 34//1 10//1 28//1 25//1
f 2//1 3//1 36//1 35//1
f 35//1 36//1 29//1 37//1
f 26//1 27//1 23//1 22//1
f 7//3 8//3 29//3 36//3
f 21//1 9//1 10//1 34//1
f 38//3 7//3 36//3 3//3
f 13//7 14//7 24//7 39//7
f 33//3 38//3 3//3 4//3
f 40//8 38//8 33//8 30//8
f 32//3 33//3 4//3 23//3
f 31//9 32//9 19//9 16//9
f 19//3 32//3 23//3 27//3
f 37//1 29//1 15//1 12//1
f 18//3 19//3 27//3 28//3
f 17//10 18//10 11//10 20//10
f 11//3 18//3 28//3 10//3
f 39//11 24//11 8//11 5//11
f 21//12 34//12 20//12
f 20//12 34//12 25//12 17//12
f 17//12 25//12 26//12 16//12
f 16//12 26//12 22//12 31//12
f 31//12 22//12 1//12 30//12
f 30//12 1//12 2//12 40//12
f 40//12 2//12 35//12 6//12
f 6//12 35//12 37//12 5//12
f 5//12 37//12 12//12 39//12
f 13//12 39//12 12//12
f 6//13 7//13 38//13 40//13
