# This file uses centimeters as units for non-parametric coordinates.

mtllib Door_Frame.mtl
g default
v -3.355869 6.493688 1.090040
v 3.355869 6.493688 1.090040
v -3.355869 6.971646 1.090040
v 3.355869 6.971646 1.090040
v -3.355869 6.971646 -1.090040
v 3.355869 6.971646 -1.090040
v -3.355869 6.493689 -1.090040
v 3.355869 6.493689 -1.090040
v -3.253190 6.971646 0.893873
v 3.253190 6.971646 0.893873
v 3.253190 6.971646 -0.893873
v -3.253190 6.971646 -0.893873
v -3.253190 7.321083 0.893873
v 3.253190 7.321083 0.893873
v 3.253190 7.321083 -0.893873
v -3.253190 7.321083 -0.893873
v -3.352884 7.321083 1.087421
v 3.352884 7.321083 1.087421
v 3.352884 7.321083 -1.087421
v -3.352884 7.321083 -1.087421
v -3.352884 8.790476 1.087421
v 3.352884 8.790476 1.087421
v 3.352884 8.790476 -1.087421
v -3.352884 8.790476 -1.087421
v -3.193380 8.790476 0.821332
v 3.193380 8.790476 0.821332
v 3.193380 8.790476 -0.821332
v -3.193380 8.790476 -0.821332
v -3.193380 9.143293 0.821332
v 3.193380 9.143293 0.821332
v 3.193380 9.143293 -0.821332
v -3.193380 9.143293 -0.821332
v -3.318540 9.143293 1.001205
v 3.318540 9.143293 1.001205
v 3.318540 9.143293 -1.001205
v -3.318540 9.143293 -1.001205
v -3.318540 9.560379 1.001205
v 3.318540 9.560379 1.001205
v 3.318540 9.560379 -1.001205
v -3.318540 9.560379 -1.001205
v 1.678063 0.987527 0.960019
v 3.269202 0.987527 0.960019
v 1.678063 0.987527 -0.960038
v 3.269202 0.987527 -0.960038
v 1.678063 5.627228 0.960019
v 3.269202 5.627228 0.960019
v 3.269202 5.627228 -0.960038
v 1.678063 5.627228 -0.960038
v 1.678063 6.513596 0.960019
v 3.269202 6.513596 0.960019
v 3.269202 6.513596 -0.960038
v 1.678063 6.513596 -0.960038
v 1.510161 -0.012473 1.143453
v 3.524149 -0.012473 1.143453
v 3.524149 0.987527 1.143453
v 1.510161 0.987527 1.143453
v 1.510161 0.987527 -1.143473
v 3.524149 0.987527 -1.143473
v 3.524149 -0.012473 -1.143473
v 1.510161 -0.012473 -1.143473
v -3.269202 0.987527 0.960028
v -1.678063 0.987527 0.960028
v -3.269202 0.987527 -0.960028
v -1.678063 0.987527 -0.960028
v -3.269202 5.627228 0.960028
v -1.678063 5.627228 0.960028
v -1.678063 5.627228 -0.960028
v -3.269202 5.627228 -0.960028
v -3.269202 6.513596 0.960028
v -1.678063 6.513596 0.960028
v -1.678063 6.513596 -0.960028
v -3.269202 6.513596 -0.960028
v -3.524149 -0.012473 1.143463
v -1.510161 -0.012473 1.143463
v -1.510161 0.987527 1.143463
v -3.524149 0.987527 1.143463
v -3.524149 0.987527 -1.143462
v -1.510161 0.987527 -1.143462
v -1.510161 -0.012473 -1.143462
v -3.524149 -0.012473 -1.143462
v 1.297665 -0.022723 0.845536
v 1.907346 -0.022723 0.845536
v 1.297665 5.963808 0.845536
v 1.907346 5.963808 0.845536
v 1.297665 5.974048 -0.845536
v 1.907346 5.974048 -0.845536
v 1.297665 -0.012484 -0.845536
v 1.907346 -0.012484 -0.845536
v -1.683353 5.984232 0.845536
v 1.683353 5.984232 0.845536
v -1.683353 6.509173 0.845536
v 1.683353 6.509173 0.845536
v -1.683353 6.471748 -0.845536
v 1.683353 6.471748 -0.845536
v -1.683353 5.946806 -0.845536
v 1.683353 5.946806 -0.845536
v -1.882197 -0.022723 0.845536
v -1.272516 -0.022723 0.845536
v -1.882197 5.963808 0.845536
v -1.272516 5.963808 0.845536
v -1.882197 5.974048 -0.845536
v -1.272516 5.974048 -0.845536
v -1.882197 -0.012484 -0.845536
v -1.272516 -0.012484 -0.845536
vt 0.375000 0.000000
vt 0.625000 0.000000
vt 0.375000 0.250000
vt 0.625000 0.250000
vt 0.375000 0.500000
vt 0.625000 0.500000
vt 0.375000 0.750000
vt 0.625000 0.750000
vt 0.375000 1.000000
vt 0.625000 1.000000
vt 0.875000 0.000000
vt 0.875000 0.250000
vt 0.125000 0.000000
vt 0.125000 0.250000
vt 0.375000 0.250000
vt 0.625000 0.250000
vt 0.625000 0.500000
vt 0.375000 0.500000
vt 0.375000 0.250000
vt 0.625000 0.250000
vt 0.625000 0.500000
vt 0.375000 0.500000
vt 0.375000 0.250000
vt 0.625000 0.250000
vt 0.625000 0.500000
vt 0.375000 0.500000
vt 0.375000 0.250000
vt 0.625000 0.250000
vt 0.625000 0.500000
vt 0.375000 0.500000
vt 0.375000 0.250000
vt 0.625000 0.250000
vt 0.625000 0.500000
vt 0.375000 0.500000
vt 0.375000 0.250000
vt 0.625000 0.250000
vt 0.625000 0.500000
vt 0.375000 0.500000
vt 0.375000 0.250000
vt 0.625000 0.250000
vt 0.625000 0.500000
vt 0.375000 0.500000
vt 0.375000 0.250000
vt 0.625000 0.250000
vt 0.625000 0.500000
vt 0.375000 0.500000
vt 0.375000 0.000000
vt 0.625000 0.000000
vt 0.625000 0.250000
vt 0.375000 0.250000
vt 0.375000 0.250000
vt 0.625000 0.250000
vt 0.625000 0.500000
vt 0.375000 0.500000
vt 0.375000 0.500000
vt 0.625000 0.500000
vt 0.625000 0.750000
vt 0.375000 0.750000
vt 0.625000 1.000000
vt 0.375000 1.000000
vt 0.875000 0.000000
vt 0.875000 0.250000
vt 0.125000 0.000000
vt 0.125000 0.250000
vt 0.375000 0.250000
vt 0.625000 0.250000
vt 0.625000 0.250000
vt 0.375000 0.250000
vt 0.625000 0.500000
vt 0.625000 0.500000
vt 0.375000 0.500000
vt 0.375000 0.500000
vt 0.875000 0.250000
vt 0.125000 0.250000
vt 0.375000 0.000000
vt 0.625000 0.000000
vt 0.625000 0.250000
vt 0.375000 0.250000
vt 0.375000 0.250000
vt 0.625000 0.250000
vt 0.625000 0.500000
vt 0.375000 0.500000
vt 0.375000 0.500000
vt 0.625000 0.500000
vt 0.625000 0.750000
vt 0.375000 0.750000
vt 0.625000 1.000000
vt 0.375000 1.000000
vt 0.875000 0.000000
vt 0.875000 0.250000
vt 0.125000 0.000000
vt 0.125000 0.250000
vt 0.375000 0.250000
vt 0.625000 0.250000
vt 0.625000 0.250000
vt 0.375000 0.250000
vt 0.625000 0.500000
vt 0.625000 0.500000
vt 0.375000 0.500000
vt 0.375000 0.500000
vt 0.875000 0.250000
vt 0.125000 0.250000
vt 0.375000 0.000000
vt 0.625000 0.000000
vt 0.625000 0.250000
vt 0.375000 0.250000
vt 0.375000 0.500000
vt 0.625000 0.500000
vt 0.625000 0.750000
vt 0.375000 0.750000
vt 0.125000 0.000000
vt 0.125000 0.250000
vt 0.375000 0.000000
vt 0.625000 0.000000
vt 0.625000 0.250000
vt 0.375000 0.250000
vt 0.625000 0.500000
vt 0.375000 0.500000
vt 0.625000 0.750000
vt 0.375000 0.750000
vt 0.625000 1.000000
vt 0.375000 1.000000
vt 0.875000 0.000000
vt 0.875000 0.250000
vt 0.125000 0.000000
vt 0.125000 0.250000
vt 0.375000 0.000000
vt 0.625000 0.000000
vt 0.625000 0.250000
vt 0.375000 0.250000
vt 0.375000 0.500000
vt 0.625000 0.500000
vt 0.625000 0.750000
vt 0.375000 0.750000
vt 0.875000 0.000000
vt 0.875000 0.250000
vn 0.000000 0.000000 1.000000
vn 0.000000 0.000000 1.000000
vn 0.000000 0.000000 1.000000
vn 0.000000 0.000000 1.000000
vn 0.000000 1.000000 0.000000
vn 0.000000 1.000000 0.000000
vn 0.000000 1.000000 0.000000
vn 0.000000 1.000000 0.000000
vn 0.000000 0.000000 -1.000000
vn 0.000000 0.000000 -1.000000
vn 0.000000 0.000000 -1.000000
vn 0.000000 0.000000 -1.000000
vn 0.000000 -1.000000 -0.000000
vn 0.000000 -1.000000 -0.000000
vn 0.000000 -1.000000 -0.000000
vn 0.000000 -1.000000 -0.000000
vn 1.000000 0.000000 0.000000
vn 1.000000 0.000000 0.000000
vn 1.000000 0.000000 0.000000
vn 1.000000 0.000000 0.000000
vn -1.000000 0.000000 0.000000
vn -1.000000 0.000000 0.000000
vn -1.000000 0.000000 0.000000
vn -1.000000 0.000000 0.000000
vn 0.000000 1.000000 0.000003
vn 0.000000 1.000000 0.000003
vn 0.000000 1.000000 0.000003
vn 0.000000 1.000000 0.000003
vn 0.000000 1.000000 0.000000
vn 0.000000 1.000000 0.000000
vn 0.000000 1.000000 0.000000
vn 0.000000 1.000000 0.000000
vn 0.000000 1.000000 -0.000003
vn 0.000000 1.000000 -0.000003
vn 0.000000 1.000000 -0.000003
vn 0.000000 1.000000 -0.000003
vn 0.000000 1.000000 0.000000
vn 0.000000 1.000000 0.000000
vn 0.000000 1.000000 0.000000
vn 0.000000 1.000000 0.000000
vn 0.000000 0.000000 1.000000
vn 0.000000 0.000000 1.000000
vn 0.000000 0.000000 1.000000
vn 0.000000 0.000000 1.000000
vn 1.000000 0.000000 0.000000
vn 1.000000 0.000000 0.000000
vn 1.000000 0.000000 0.000000
vn 1.000000 0.000000 0.000000
vn 0.000000 0.000000 -1.000000
vn 0.000000 0.000000 -1.000000
vn 0.000000 0.000000 -1.000000
vn 0.000000 0.000000 -1.000000
vn -1.000000 0.000000 0.000000
vn -1.000000 0.000000 0.000000
vn -1.000000 0.000000 0.000000
vn -1.000000 0.000000 0.000000
vn 0.000000 -1.000000 0.000002
vn 0.000000 -1.000000 0.000002
vn 0.000000 -1.000000 0.000002
vn 0.000000 -1.000000 0.000002
vn 0.000000 -1.000000 0.000000
vn 0.000000 -1.000000 0.000000
vn 0.000000 -1.000000 0.000000
vn 0.000000 -1.000000 0.000000
vn 0.000000 -1.000000 -0.000002
vn 0.000000 -1.000000 -0.000002
vn 0.000000 -1.000000 -0.000002
vn 0.000000 -1.000000 -0.000002
vn 0.000000 -1.000000 0.000000
vn 0.000000 -1.000000 0.000000
vn 0.000000 -1.000000 0.000000
vn 0.000000 -1.000000 0.000000
vn 0.000000 0.000000 1.000000
vn 0.000000 0.000000 1.000000
vn 0.000000 0.000000 1.000000
vn 0.000000 0.000000 1.000000
vn 1.000000 0.000000 0.000000
vn 1.000000 0.000000 0.000000
vn 1.000000 0.000000 0.000000
vn 1.000000 0.000000 0.000000
vn 0.000000 0.000000 -1.000000
vn 0.000000 0.000000 -1.000000
vn 0.000000 0.000000 -1.000000
vn 0.000000 0.000000 -1.000000
vn -1.000000 0.000000 0.000000
vn -1.000000 0.000000 0.000000
vn -1.000000 0.000000 0.000000
vn -1.000000 0.000000 0.000000
vn 0.000000 1.000000 0.000000
vn 0.000000 1.000000 0.000000
vn 0.000000 1.000000 0.000000
vn 0.000000 1.000000 0.000000
vn 0.000000 1.000000 -0.000000
vn 0.000000 1.000000 -0.000000
vn 0.000000 1.000000 -0.000000
vn 0.000000 1.000000 -0.000000
vn 0.000000 0.000000 1.000000
vn 0.000000 0.000000 1.000000
vn 0.000000 0.000000 1.000000
vn 0.000000 0.000000 1.000000
vn 1.000000 0.000000 0.000000
vn 1.000000 0.000000 0.000000
vn 1.000000 0.000000 0.000000
vn 1.000000 0.000000 0.000000
vn 0.000000 0.000000 -1.000000
vn 0.000000 0.000000 -1.000000
vn 0.000000 0.000000 -1.000000
vn 0.000000 0.000000 -1.000000
vn -1.000000 0.000000 0.000000
vn -1.000000 0.000000 0.000000
vn -1.000000 0.000000 0.000000
vn -1.000000 0.000000 0.000000
vn 0.000000 -1.000000 0.000002
vn 0.000000 -1.000000 0.000002
vn 0.000000 -1.000000 0.000002
vn 0.000000 -1.000000 0.000002
vn 0.000000 -1.000000 -0.000002
vn 0.000000 -1.000000 -0.000002
vn 0.000000 -1.000000 -0.000002
vn 0.000000 -1.000000 -0.000002
vn 0.000000 0.000000 1.000000
vn 0.000000 0.000000 1.000000
vn 0.000000 0.000000 1.000000
vn 0.000000 0.000000 1.000000
vn 1.000000 0.000000 0.000000
vn 1.000000 0.000000 0.000000
vn 1.000000 0.000000 0.000000
vn 1.000000 0.000000 0.000000
vn 0.000000 0.000000 -1.000000
vn 0.000000 0.000000 -1.000000
vn 0.000000 0.000000 -1.000000
vn 0.000000 0.000000 -1.000000
vn -1.000000 0.000000 0.000000
vn -1.000000 0.000000 0.000000
vn -1.000000 0.000000 0.000000
vn -1.000000 0.000000 0.000000
vn 0.000000 0.000000 1.000000
vn 0.000000 0.000000 1.000000
vn 0.000000 0.000000 1.000000
vn 0.000000 0.000000 1.000000
vn 0.000000 1.000000 0.000000
vn 0.000000 1.000000 0.000000
vn 0.000000 1.000000 0.000000
vn 0.000000 1.000000 0.000000
vn 0.000000 0.000000 -1.000000
vn 0.000000 0.000000 -1.000000
vn 0.000000 0.000000 -1.000000
vn 0.000000 0.000000 -1.000000
vn 0.000000 -1.000000 0.000000
vn 0.000000 -1.000000 0.000000
vn 0.000000 -1.000000 0.000000
vn 0.000000 -1.000000 0.000000
vn 1.000000 0.000000 0.000000
vn 1.000000 0.000000 0.000000
vn 1.000000 0.000000 0.000000
vn 1.000000 0.000000 0.000000
vn -1.000000 0.000000 0.000000
vn -1.000000 0.000000 0.000000
vn -1.000000 0.000000 0.000000
vn -1.000000 0.000000 0.000000
vn 0.000000 0.000000 1.000000
vn 0.000000 0.000000 1.000000
vn 0.000000 0.000000 1.000000
vn 0.000000 0.000000 1.000000
vn 1.000000 0.000000 0.000000
vn 1.000000 0.000000 0.000000
vn 1.000000 0.000000 0.000000
vn 1.000000 0.000000 0.000000
vn 0.000000 0.000000 -1.000000
vn 0.000000 0.000000 -1.000000
vn 0.000000 0.000000 -1.000000
vn 0.000000 0.000000 -1.000000
vn -1.000000 0.000000 0.000000
vn -1.000000 0.000000 0.000000
vn -1.000000 0.000000 0.000000
vn -1.000000 0.000000 0.000000
vn 0.000000 0.000000 1.000000
vn 0.000000 0.000000 1.000000
vn 1.000000 0.000000 0.000000
vn 1.000000 0.000000 0.000000
vn 0.000000 0.000000 -1.000000
vn 0.000000 0.000000 -1.000000
vn -1.000000 0.000000 0.000000
vn -1.000000 0.000000 0.000000
vn 0.000000 1.000000 0.000000
vn 0.000000 1.000000 0.000000
vn 0.000000 1.000000 0.000000
vn 0.000000 1.000000 0.000000
vn 0.000000 1.000000 -0.000000
vn 0.000000 1.000000 -0.000000
vn 0.000000 1.000000 -0.000000
vn 0.000000 1.000000 -0.000000
vn 0.000000 1.000000 0.000000
vn 0.000000 1.000000 0.000000
vn 0.000000 1.000000 0.000000
vn 0.000000 1.000000 0.000000
vn 0.000000 1.000000 0.000000
vn 0.000000 1.000000 0.000000
vn 0.000000 1.000000 0.000000
vn 0.000000 1.000000 0.000000
vn 0.000000 0.000000 1.000000
vn 0.000000 0.000000 1.000000
vn 0.000000 0.000000 1.000000
vn 0.000000 0.000000 1.000000
vn 0.000000 1.000000 0.000000
vn 0.000000 1.000000 0.000000
vn 0.000000 1.000000 0.000000
vn 0.000000 1.000000 0.000000
vn 0.000000 0.000000 -1.000000
vn 0.000000 0.000000 -1.000000
vn 0.000000 0.000000 -1.000000
vn 0.000000 0.000000 -1.000000
vn 0.000000 -1.000000 0.000000
vn 0.000000 -1.000000 0.000000
vn 0.000000 -1.000000 0.000000
vn 0.000000 -1.000000 0.000000
vn 1.000000 0.000000 0.000000
vn 1.000000 0.000000 0.000000
vn 1.000000 0.000000 0.000000
vn 1.000000 0.000000 0.000000
vn -1.000000 0.000000 0.000000
vn -1.000000 0.000000 0.000000
vn -1.000000 0.000000 0.000000
vn -1.000000 0.000000 0.000000
vn 0.000000 0.000000 1.000000
vn 0.000000 0.000000 1.000000
vn 0.000000 0.000000 1.000000
vn 0.000000 0.000000 1.000000
vn 1.000000 0.000000 0.000000
vn 1.000000 0.000000 0.000000
vn 1.000000 -0.000000 0.000000
vn 1.000000 -0.000000 0.000000
vn 0.000000 0.000000 -1.000000
vn 0.000000 0.000000 -1.000000
vn 0.000000 0.000000 -1.000000
vn 0.000000 0.000000 -1.000000
vn -1.000000 0.000000 0.000000
vn -1.000000 0.000000 0.000000
vn -1.000000 0.000000 0.000000
vn -1.000000 0.000000 0.000000
vn 0.000000 0.000000 1.000000
vn 0.000000 0.000000 1.000000
vn 1.000000 -0.000000 0.000000
vn 1.000000 -0.000000 0.000000
vn 0.000000 0.000000 -1.000000
vn 0.000000 0.000000 -1.000000
vn -1.000000 0.000000 0.000000
vn -1.000000 0.000000 0.000000
vn 0.000000 1.000000 0.000000
vn 0.000000 1.000000 0.000000
vn 0.000000 1.000000 0.000000
vn 0.000000 1.000000 0.000000
vn 0.000000 1.000000 -0.000000
vn 0.000000 1.000000 -0.000000
vn 0.000000 1.000000 -0.000000
vn 0.000000 1.000000 -0.000000
vn 0.000000 1.000000 0.000000
vn 0.000000 1.000000 0.000000
vn 0.000000 1.000000 0.000000
vn 0.000000 1.000000 0.000000
vn 0.000000 1.000000 0.000000
vn 0.000000 1.000000 0.000000
vn 0.000000 1.000000 0.000000
vn 0.000000 1.000000 0.000000
vn 0.000000 0.000000 1.000000
vn 0.000000 0.000000 1.000000
vn 0.000000 0.000000 1.000000
vn 0.000000 0.000000 1.000000
vn 0.000000 0.000000 -1.000000
vn 0.000000 0.000000 -1.000000
vn 0.000000 0.000000 -1.000000
vn 0.000000 0.000000 -1.000000
vn -1.000000 0.000000 0.000000
vn -1.000000 0.000000 0.000000
vn -1.000000 0.000000 0.000000
vn -1.000000 0.000000 0.000000
vn 0.000000 0.000000 1.000000
vn 0.000000 0.000000 1.000000
vn 0.000000 0.000000 1.000000
vn 0.000000 0.000000 1.000000
vn 0.000000 0.999755 -0.022126
vn 0.000000 0.999755 -0.022126
vn 0.000000 0.999755 -0.022126
vn 0.000000 0.999755 -0.022126
vn 0.000000 0.000000 -1.000000
vn 0.000000 0.000000 -1.000000
vn 0.000000 0.000000 -1.000000
vn 0.000000 0.000000 -1.000000
vn 0.000000 -0.999755 0.022126
vn 0.000000 -0.999755 0.022126
vn 0.000000 -0.999755 0.022126
vn 0.000000 -0.999755 0.022126
vn 1.000000 0.000000 0.000000
vn 1.000000 0.000000 0.000000
vn 1.000000 0.000000 0.000000
vn 1.000000 0.000000 0.000000
vn -1.000000 0.000000 0.000000
vn -1.000000 0.000000 0.000000
vn -1.000000 0.000000 0.000000
vn -1.000000 0.000000 0.000000
vn 0.000000 0.000000 1.000000
vn 0.000000 0.000000 1.000000
vn 0.000000 0.000000 1.000000
vn 0.000000 0.000000 1.000000
vn 0.000000 0.000000 -1.000000
vn 0.000000 0.000000 -1.000000
vn 0.000000 0.000000 -1.000000
vn 0.000000 0.000000 -1.000000
vn 1.000000 0.000000 0.000000
vn 1.000000 0.000000 0.000000
vn 1.000000 0.000000 0.000000
vn 1.000000 0.000000 0.000000
s off
g DoorFrame
usemtl initialShadingGroup
f 1/1/1 2/2/2 4/4/3 3/3/4
f 37/43/5 38/44/6 39/45/7 40/46/8
f 5/5/9 6/6/10 8/8/11 7/7/12
f 7/7/13 8/8/14 2/10/15 1/9/16
f 2/2/17 8/11/18 6/12/19 4/4/20
f 7/13/21 1/1/22 3/3/23 5/14/24
f 3/3/25 4/4/26 10/16/27 9/15/28
f 4/4/29 6/6/30 11/17/31 10/16/32
f 6/6/33 5/5/34 12/18/35 11/17/36
f 5/5/37 3/3/38 9/15/39 12/18/40
f 9/15/41 10/16/42 14/20/43 13/19/44
f 10/16/45 11/17/46 15/21/47 14/20/48
f 11/17/49 12/18/50 16/22/51 15/21/52
f 12/18/53 9/15/54 13/19/55 16/22/56
f 13/19/57 14/20/58 18/24/59 17/23/60
f 14/20/61 15/21/62 19/25/63 18/24/64
f 15/21/65 16/22/66 20/26/67 19/25/68
f 16/22/69 13/19/70 17/23/71 20/26/72
f 17/23/73 18/24/74 22/28/75 21/27/76
f 18/24/77 19/25/78 23/29/79 22/28/80
f 19/25/81 20/26/82 24/30/83 23/29/84
f 20/26/85 17/23/86 21/27/87 24/30/88
s 1
f 21/27/89 22/28/90 26/32/91 25/31/92
f 22/28/90 23/29/93 27/33/94 26/32/91
f 23/29/93 24/30/95 28/34/96 27/33/94
f 24/30/95 21/27/89 25/31/92 28/34/96
s off
f 25/31/97 26/32/98 30/36/99 29/35/100
f 26/32/101 27/33/102 31/37/103 30/36/104
f 27/33/105 28/34/106 32/38/107 31/37/108
f 28/34/109 25/31/110 29/35/111 32/38/112
s 2
f 29/35/113 30/36/114 34/40/115 33/39/116
f 30/36/114 31/37/117 35/41/118 34/40/115
f 31/37/117 32/38/119 36/42/120 35/41/118
f 32/38/119 29/35/113 33/39/116 36/42/120
s off
f 33/39/121 34/40/122 38/44/123 37/43/124
f 34/40/125 35/41/126 39/45/127 38/44/128
f 35/41/129 36/42/130 40/46/131 39/45/132
f 36/42/133 33/39/134 37/43/135 40/46/136
f 53/47/137 54/48/138 55/49/139 56/50/140
f 49/51/141 50/52/142 51/53/143 52/54/144
f 57/55/145 58/56/146 59/57/147 60/58/148
f 60/58/149 59/57/150 54/59/151 53/60/152
f 54/48/153 59/61/154 58/62/155 55/49/156
f 60/63/157 53/47/158 56/50/159 57/64/160
s 3
f 41/65/161 42/66/162 46/67/163 45/68/164
s 4
f 42/66/165 44/69/166 47/70/167 46/67/168
s 5
f 44/69/169 43/71/170 48/72/171 47/70/172
s 6
f 43/71/173 41/65/174 45/68/175 48/72/176
s 3
f 45/68/164 46/67/163 50/52/177 49/51/178
s 4
f 46/67/168 47/70/167 51/53/179 50/52/180
s 5
f 47/70/172 48/72/171 52/54/181 51/53/182
s 6
f 48/72/176 45/68/175 49/51/183 52/54/184
s off
f 42/66/185 41/65/186 56/50/187 55/49/188
f 43/71/189 44/69/190 58/56/191 57/55/192
f 44/73/193 42/66/194 55/49/195 58/62/196
f 41/65/197 43/74/198 57/64/199 56/50/200
f 73/75/201 74/76/202 75/77/203 76/78/204
f 69/79/205 70/80/206 71/81/207 72/82/208
f 77/83/209 78/84/210 79/85/211 80/86/212
f 80/86/213 79/85/214 74/87/215 73/88/216
f 74/76/217 79/89/218 78/90/219 75/77/220
f 80/91/221 73/75/222 76/78/223 77/92/224
s 7
f 61/93/225 62/94/226 66/95/227 65/96/228
s 8
f 62/94/229 64/97/230 67/98/231 66/95/232
s 9
f 64/97/233 63/99/234 68/100/235 67/98/236
s 10
f 63/99/237 61/93/238 65/96/239 68/100/240
s 7
f 65/96/228 66/95/227 70/80/241 69/79/242
s 8
f 66/95/232 67/98/231 71/81/243 70/80/244
s 9
f 67/98/236 68/100/235 72/82/245 71/81/246
s 10
f 68/100/240 65/96/239 69/79/247 72/82/248
s off
f 62/94/249 61/93/250 76/78/251 75/77/252
f 63/99/253 64/97/254 78/84/255 77/83/256
f 64/101/257 62/94/258 75/77/259 78/90/260
f 61/93/261 63/102/262 77/92/263 76/78/264
f 81/103/265 82/104/266 84/105/267 83/106/268
f 85/107/269 86/108/270 88/109/271 87/110/272
f 87/111/273 81/103/274 83/106/275 85/112/276
f 89/113/277 90/114/278 92/115/279 91/116/280
f 91/116/281 92/115/282 94/117/283 93/118/284
f 93/118/285 94/117/286 96/119/287 95/120/288
f 95/120/289 96/119/290 90/121/291 89/122/292
f 90/114/293 96/123/294 94/124/295 92/115/296
f 95/125/297 89/113/298 91/116/299 93/126/300
f 97/127/301 98/128/302 100/129/303 99/130/304
f 101/131/305 102/132/306 104/133/307 103/134/308
f 98/128/309 104/135/310 102/136/311 100/129/312
