# This file uses centimeters as units for non-parametric coordinates.

mtllib TempleStone_1x1.mtl
g default
v -0.477073 0.022927 0.450005
v -0.450005 0.000000 0.450005
v -0.450005 0.022927 0.477073
v -0.450005 0.049995 0.500000
v -0.477073 0.049995 0.477073
v -0.500000 0.049995 0.450005
v 0.477073 0.022927 0.450005
v 0.500000 0.049995 0.450005
v 0.477073 0.049995 0.477073
v 0.450005 0.049995 0.500000
v 0.450005 0.022927 0.477073
v 0.450005 0.000000 0.450005
v -0.477073 0.977073 0.450005
v -0.500000 0.950005 0.450005
v -0.477073 0.950005 0.477073
v -0.450005 0.950005 0.500000
v -0.450005 0.977073 0.477073
v -0.450005 1.000000 0.450005
v 0.477073 0.977073 0.450005
v 0.450005 1.000000 0.450005
v 0.450005 0.977073 0.477073
v 0.450005 0.950005 0.500000
v 0.477073 0.950005 0.477073
v 0.500000 0.950005 0.450005
v -0.477073 0.950005 -0.477073
v -0.500000 0.950005 -0.450005
v -0.477073 0.977073 -0.450005
v -0.450005 1.000000 -0.450005
v -0.450005 0.977073 -0.477073
v -0.450005 0.950005 -0.500000
v 0.477073 0.950005 -0.477073
v 0.450005 0.950005 -0.500000
v 0.450005 0.977073 -0.477073
v 0.450005 1.000000 -0.450005
v 0.477073 0.977073 -0.450005
v 0.500000 0.950005 -0.450005
v -0.477073 0.022927 -0.450005
v -0.500000 0.049995 -0.450005
v -0.477073 0.049995 -0.477073
v -0.450005 0.049995 -0.500000
v -0.450005 0.022927 -0.477073
v -0.450005 0.000000 -0.450005
v 0.477073 0.022927 -0.450005
v 0.450005 0.000000 -0.450005
v 0.450005 0.022927 -0.477073
v 0.450005 0.049995 -0.500000
v 0.477073 0.049995 -0.477073
v 0.500000 0.049995 -0.450005
v -0.468894 0.031106 0.468894
v 0.468894 0.031106 0.468894
v -0.468894 0.968894 0.468894
v 0.468894 0.968894 0.468894
v -0.468894 0.968894 -0.468894
v 0.468894 0.968894 -0.468894
v -0.468894 0.031106 -0.468894
v 0.468894 0.031106 -0.468894
vt 0.387499 0.987501
vt 0.387499 0.012499
vt 0.612501 0.987501
vt 0.637499 0.012499
vt 0.387499 0.237501
vt 0.612501 0.237501
vt 0.637499 0.237501
vt 0.137499 0.012499
vt 0.387499 0.487501
vt 0.612501 0.487501
vt 0.862501 0.237501
vt 0.862501 0.012499
vt 0.612501 0.762499
vt 0.387499 0.737501
vt 0.612501 0.737501
vt 0.612501 0.012499
vt 0.387499 0.262499
vt 0.612501 0.262499
vt 0.387499 0.512499
vt 0.612501 0.512499
vt 0.387499 0.762499
vt 0.362501 0.012499
vt 0.362501 0.237501
vt 0.137499 0.237501
vt 0.375000 0.994136
vt 0.369136 -0.000000
vt 0.380864 -0.000000
vt 0.380864 1.000000
vt 0.375000 0.012114
vt 0.630864 -0.000000
vt 0.625000 0.994136
vt 0.625000 0.012114
vt 0.619136 1.000000
vt 0.619136 -0.000000
vt 0.369136 0.250000
vt 0.375000 0.255864
vt 0.375000 0.237886
vt 0.387114 0.250000
vt 0.625000 0.255864
vt 0.630864 0.250000
vt 0.612886 0.250000
vt 0.625000 0.237886
vt 0.125000 0.244136
vt 0.375000 0.505864
vt 0.375000 0.494136
vt 0.130864 0.250000
vt 0.387114 0.500000
vt 0.625000 0.505864
vt 0.875000 0.244136
vt 0.612886 0.500000
vt 0.869136 0.250000
vt 0.625000 0.494136
vt 0.130864 -0.000000
vt 0.375000 0.755864
vt 0.375000 0.744136
vt 0.125000 0.005864
vt 0.387114 0.750000
vt 0.625000 0.755864
vt 0.869136 -0.000000
vt 0.612886 0.750000
vt 0.875000 0.005864
vt 0.625000 0.744136
vt 0.375000 1.000000
vt 0.375000 0.000000
vt 0.625000 0.000000
vt 0.625000 1.000000
vt 0.375000 0.250000
vt 0.625000 0.250000
vt 0.125000 0.250000
vt 0.375000 0.500000
vt 0.625000 0.500000
vt 0.875000 0.250000
vt 0.125000 0.000000
vt 0.375000 0.750000
vt 0.625000 0.750000
vt 0.875000 0.000000
vn -0.646314 -0.763072 0.000000
vn -0.707107 -0.707107 0.000000
vn -0.707107 -0.707107 0.000000
vn -0.646314 -0.763072 0.000000
vn -0.763072 -0.646314 0.000000
vn -0.763072 -0.646314 0.000000
vn 0.000000 -0.646314 0.763072
vn 0.000000 -0.707107 0.707107
vn 0.000000 -0.707107 0.707107
vn 0.000000 -0.646314 0.763072
vn 0.000000 -0.763072 0.646314
vn 0.000000 -0.763072 0.646314
vn -0.763072 0.000000 0.646314
vn -0.707107 0.000000 0.707107
vn -0.707107 0.000000 0.707107
vn -0.763072 0.000000 0.646314
vn -0.646314 0.000000 0.763072
vn -0.646314 0.000000 0.763072
vn 0.763072 -0.646314 0.000000
vn 0.707107 -0.707107 0.000000
vn 0.707107 -0.707107 0.000000
vn 0.763072 -0.646314 0.000000
vn 0.646314 -0.763072 0.000000
vn 0.646314 -0.763072 0.000000
vn 0.646314 0.000000 0.763072
vn 0.707107 0.000000 0.707107
vn 0.707107 0.000000 0.707107
vn 0.646314 0.000000 0.763072
vn 0.763072 0.000000 0.646314
vn 0.763072 0.000000 0.646314
vn -0.763072 0.646314 0.000000
vn -0.707107 0.707107 0.000000
vn -0.707107 0.707107 0.000000
vn -0.763072 0.646314 0.000000
vn -0.646314 0.763072 0.000000
vn -0.646314 0.763072 0.000000
vn 0.000000 0.763072 0.646313
vn 0.000000 0.707107 0.707107
vn 0.000000 0.707107 0.707107
vn 0.000000 0.763072 0.646313
vn 0.000000 0.646313 0.763072
vn 0.000000 0.646313 0.763072
vn 0.646314 0.763072 0.000000
vn 0.707107 0.707107 0.000000
vn 0.707107 0.707107 0.000000
vn 0.646314 0.763072 0.000000
vn 0.763072 0.646314 0.000000
vn 0.763072 0.646314 0.000000
vn -0.763072 0.000000 -0.646314
vn -0.707107 0.000000 -0.707107
vn -0.707107 0.000000 -0.707107
vn -0.763072 0.000000 -0.646314
vn -0.646314 0.000000 -0.763072
vn -0.646314 0.000000 -0.763072
vn 0.000000 0.646313 -0.763072
vn 0.000000 0.707107 -0.707107
vn 0.000000 0.707107 -0.707107
vn 0.000000 0.646313 -0.763072
vn 0.000000 0.763072 -0.646313
vn 0.000000 0.763072 -0.646313
vn 0.646314 0.000000 -0.763072
vn 0.707107 0.000000 -0.707107
vn 0.707107 0.000000 -0.707107
vn 0.646314 0.000000 -0.763072
vn 0.763072 0.000000 -0.646314
vn 0.763072 0.000000 -0.646314
vn 0.000000 -0.763072 -0.646314
vn 0.000000 -0.707107 -0.707107
vn 0.000000 -0.707107 -0.707107
vn 0.000000 -0.763072 -0.646314
vn 0.000000 -0.646314 -0.763072
vn 0.000000 -0.646314 -0.763072
vn 0.000000 0.000000 1.000000
vn 0.000000 0.000000 1.000000
vn 0.000000 0.000000 1.000000
vn 0.000000 0.000000 1.000000
vn 0.000000 1.000000 0.000000
vn 0.000000 1.000000 0.000000
vn 0.000000 1.000000 0.000000
vn 0.000000 1.000000 0.000000
vn 0.000000 0.000000 -1.000000
vn 0.000000 0.000000 -1.000000
vn 0.000000 0.000000 -1.000000
vn 0.000000 0.000000 -1.000000
vn 0.000000 -1.000000 0.000000
vn 0.000000 -1.000000 0.000000
vn 0.000000 -1.000000 0.000000
vn 0.000000 -1.000000 0.000000
vn 1.000000 0.000000 0.000000
vn 1.000000 0.000000 0.000000
vn 1.000000 0.000000 0.000000
vn 1.000000 0.000000 0.000000
vn -1.000000 0.000000 0.000000
vn -1.000000 0.000000 0.000000
vn -1.000000 0.000000 0.000000
vn -1.000000 0.000000 0.000000
vn -0.595951 -0.538223 0.595951
vn -0.651511 -0.536439 0.536439
vn -0.595951 -0.595951 0.538224
vn -0.577350 -0.577350 0.577350
vn -0.536439 -0.651511 0.536439
vn -0.538223 -0.595951 0.595951
vn -0.536439 -0.536439 0.651511
vn 0.538223 -0.595951 0.595951
vn 0.536439 -0.651511 0.536439
vn 0.595951 -0.595951 0.538224
vn 0.577350 -0.577350 0.577350
vn 0.651511 -0.536438 0.536439
vn 0.595951 -0.538223 0.595951
vn 0.536438 -0.536439 0.651511
vn -0.538223 0.595951 0.595952
vn -0.536438 0.651511 0.536440
vn -0.595951 0.595951 0.538224
vn -0.577350 0.577350 0.577351
vn -0.651511 0.536438 0.536439
vn -0.595951 0.538223 0.595952
vn -0.536438 0.536439 0.651512
vn 0.595951 0.538223 0.595952
vn 0.651511 0.536439 0.536439
vn 0.595951 0.595951 0.538224
vn 0.577350 0.577350 0.577351
vn 0.536438 0.651511 0.536440
vn 0.538223 0.595951 0.595952
vn 0.536438 0.536438 0.651513
vn -0.538223 0.595951 -0.595952
vn -0.536438 0.536438 -0.651513
vn -0.595951 0.538223 -0.595952
vn -0.577350 0.577350 -0.577351
vn -0.651511 0.536439 -0.536439
vn -0.595951 0.595951 -0.538224
vn -0.536438 0.651511 -0.536440
vn 0.595951 0.595951 -0.538224
vn 0.651511 0.536438 -0.536439
vn 0.595951 0.538223 -0.595952
vn 0.577350 0.577350 -0.577351
vn 0.536438 0.536439 -0.651512
vn 0.538223 0.595951 -0.595952
vn 0.536438 0.651511 -0.536440
vn -0.538223 -0.595951 -0.595951
vn -0.536439 -0.651511 -0.536439
vn -0.595951 -0.595951 -0.538224
vn -0.577350 -0.577350 -0.577350
vn -0.651511 -0.536438 -0.536439
vn -0.595951 -0.538223 -0.595951
vn -0.536438 -0.536439 -0.651511
vn 0.595951 -0.538223 -0.595951
vn 0.651511 -0.536439 -0.536439
vn 0.595951 -0.595951 -0.538224
vn 0.577350 -0.577350 -0.577350
vn 0.536439 -0.651511 -0.536439
vn 0.538223 -0.595951 -0.595951
vn 0.536439 -0.536439 -0.651511
s 1
g TempleStone_1x1
usemtl initialShadingGroup
f 2/1/1 1/25/2 37/54/3 42/21/4
f 1/26/2 6/22/5 38/8/6 37/53/3
s 2
f 4/2/7 3/27/8 11/34/9 10/16/10
f 3/28/8 2/1/11 12/3/12 11/33/9
s 3
f 6/22/13 5/29/14 15/37/15 14/23/16
f 5/29/14 4/2/17 16/5/18 15/37/15
s 4
f 8/4/19 7/30/20 43/59/21 48/12/22
f 7/31/20 12/3/23 44/13/24 43/58/21
s 5
f 10/16/25 9/32/26 23/42/27 22/6/28
f 9/32/26 8/4/29 24/7/30 23/42/27
s 6
f 14/23/31 13/35/32 27/46/33 26/24/34
f 13/36/32 18/17/35 28/9/36 27/45/33
s 7
f 18/17/37 17/38/38 21/41/39 20/18/40
f 17/38/38 16/5/41 22/6/42 21/41/39
s 8
f 20/18/43 19/39/44 35/52/45 34/10/46
f 19/40/44 24/7/47 36/11/48 35/51/45
s 9
f 26/24/49 25/43/50 39/56/51 38/8/52
f 25/44/50 30/19/53 40/14/54 39/55/51
s 10
f 30/19/55 29/47/56 33/50/57 32/20/58
f 29/47/56 28/9/59 34/10/60 33/50/57
s 11
f 32/20/61 31/48/62 47/62/63 46/15/64
f 31/49/62 36/11/65 48/12/66 47/61/63
s 12
f 42/21/67 41/57/68 45/60/69 44/13/70
f 41/57/68 40/14/71 46/15/72 45/60/69
s off
f 4/2/73 10/16/74 22/6/75 16/5/76
f 18/17/77 20/18/78 34/10/79 28/9/80
f 30/19/81 32/20/82 46/15/83 40/14/84
f 42/21/85 44/13/86 12/3/87 2/1/88
f 8/4/89 48/12/90 36/11/91 24/7/92
f 38/8/93 6/22/94 14/23/95 26/24/96
s 13
f 5/29/97 6/22/98 1/26/99 49/64/100
f 1/25/99 2/1/101 3/28/102 49/63/100
f 3/27/102 4/2/103 5/29/97 49/64/100
s 14
f 11/33/104 12/3/105 7/31/106 50/66/107
f 7/30/106 8/4/108 9/32/109 50/65/107
f 9/32/109 10/16/110 11/34/104 50/65/107
s 15
f 17/38/111 18/17/112 13/36/113 51/67/114
f 13/35/113 14/23/115 15/37/116 51/67/114
f 15/37/116 16/5/117 17/38/111 51/67/114
s 16
f 23/42/118 24/7/119 19/40/120 52/68/121
f 19/39/120 20/18/122 21/41/123 52/68/121
f 21/41/123 22/6/124 23/42/118 52/68/121
s 17
f 29/47/125 30/19/126 25/44/127 53/70/128
f 25/43/127 26/24/129 27/46/130 53/69/128
f 27/45/130 28/9/131 29/47/125 53/70/128
s 18
f 35/51/132 36/11/133 31/49/134 54/72/135
f 31/48/134 32/20/136 33/50/137 54/71/135
f 33/50/137 34/10/138 35/52/132 54/71/135
s 19
f 41/57/139 42/21/140 37/54/141 55/74/142
f 37/53/141 38/8/143 39/56/144 55/73/142
f 39/55/144 40/14/145 41/57/139 55/74/142
s 20
f 47/61/146 48/12/147 43/59/148 56/76/149
f 43/58/148 44/13/150 45/60/151 56/75/149
f 45/60/151 46/15/152 47/62/146 56/75/149
