# Blender v2.77 (sub 0) OBJ File: 'arch_02.obj'
# www.blender.org
mtllib Bear_PlaceHolder.mtl
o pCube1
v 3.849674 2.310550 2.668688
v 3.849674 2.310550 1.180969
v 3.849674 3.091933 1.180969
v 3.849674 3.091933 2.668688
v 2.668689 5.683609 4.969534
v 2.668689 5.683609 1.180969
v 1.582529 8.425741 1.180969
v 1.582529 8.425741 4.969534
v -3.849674 3.091935 2.668688
v -3.849674 3.091935 1.180969
v -3.849674 2.310552 1.180969
v -3.849674 2.310552 2.668688
v 1.582528 4.416108 4.969534
v 1.582528 2.507059 1.180969
v 2.668689 3.201519 1.180969
v 1.751587 3.201519 4.969534
v 2.668689 4.257130 -4.969534
v 1.582529 3.339179 -5.468392
v 1.582529 6.330495 -4.755200
v 2.668689 5.375268 -4.213244
v 2.027462 5.543668 4.969534
v 2.668688 4.257130 4.969534
v 2.668689 5.683609 -0.941303
v 1.582529 6.730690 -0.941303
v -2.668687 4.257131 1.180969
v -2.668687 5.683609 1.180969
v -2.668687 5.683609 -0.941303
v -2.668687 4.257131 -0.941303
v 1.582528 2.203488 -0.941303
v 2.668689 3.201519 -0.941303
v 2.668689 4.257130 1.180969
v 2.668689 4.257130 -0.941303
v -3.849674 2.310552 -0.941303
v -3.849674 3.091935 -0.941303
v -3.849673 3.091935 -2.668688
v -3.849674 2.310552 -2.668688
v 1.582528 1.727456 -4.498164
v 2.668689 3.201519 -4.969534
v 3.849674 3.091933 -0.941303
v 3.849674 2.310550 -0.941303
v 3.849674 2.310550 -2.668688
v 3.849675 3.091933 -2.668688
v 0.036280 6.845959 -4.969534
v 0.036280 6.730691 -0.941303
v 0.036280 8.425741 1.180969
v 0.036280 8.425741 4.969534
v 0.063606 4.945266 9.092891
v 0.584179 4.945266 9.092891
v 0.584179 5.780492 9.092891
v 0.063606 5.780492 9.092891
v 0.036279 3.410897 4.969534
v 0.036279 2.507059 1.180969
v 0.036279 2.203488 -0.941303
v 0.036280 1.413797 -4.969534
v 0.036280 3.339179 -5.740388
v -1.427576 6.730691 -0.941303
v -1.427576 6.330496 -4.755200
v -2.668687 5.375268 -4.213244
v -1.427576 8.425741 1.180969
v -1.427576 8.425741 4.969534
v -2.668688 5.683609 4.969534
v -2.668688 4.257131 4.969534
v -1.872510 5.543669 4.969534
v -1.751587 3.201519 4.969534
v -2.668688 3.201519 1.180969
v -1.427577 2.507059 1.180969
v -1.427577 4.416108 4.969534
v -1.427577 2.203488 -0.941303
v -2.668688 3.201519 -0.941303
v -1.427577 1.727456 -4.498164
v -2.668687 3.201519 -4.969534
v -1.427576 3.339179 -5.468392
v -2.668687 4.257131 -4.969534
v 1.751587 0.248923 3.642154
v 2.668688 0.248922 1.180969
v 3.849674 0.248921 1.180969
v 3.849674 0.248921 2.668688
v -2.668688 0.248923 1.180969
v -1.751587 0.248923 3.642154
v -3.849674 0.248923 2.668688
v -3.849674 0.248923 1.180969
v -2.668688 0.248923 -3.634010
v -2.668688 0.248923 0.083605
v -3.849674 0.248923 -0.941303
v -3.849674 0.248923 -2.668688
v 2.668688 0.248922 0.083605
v 2.668688 0.248922 -3.634010
v 3.849674 0.248921 -2.668688
v 3.849674 0.248921 -0.941303
v 3.849674 1.732316 1.180969
v 3.849674 1.732316 2.668688
v 3.849674 0.214204 3.952266
v 1.559566 0.395813 6.253111
v 1.559566 0.030841 6.253111
v 3.849674 0.030840 3.952266
v -1.559567 0.395813 6.253111
v -3.849674 0.214206 3.952266
v -3.849674 0.030842 3.952266
v -1.559568 0.030841 6.253111
v -3.849674 1.732317 2.668688
v -3.849674 1.732317 1.180969
v -3.849674 1.732317 -0.941303
v -3.849674 1.732317 -2.668688
v 3.849674 1.732316 -2.668688
v 3.849674 1.732316 -0.941303
v 1.582528 4.418580 7.300381
v 0.036279 3.413370 7.300381
v 1.582529 7.730091 7.300381
v 2.027461 5.249236 7.300381
v 1.660937 8.715738 5.996065
v 0.765566 9.108044 5.996065
v 0.774418 9.128246 6.273850
v 1.669788 8.735941 6.273850
v -1.872510 5.249237 7.300381
v -1.427576 7.730091 7.300381
v 0.907172 4.142854 7.877894
v 0.054765 4.142854 7.877894
v 0.907172 6.522554 7.877894
v 0.907172 5.154921 7.877894
v 0.036280 7.730091 7.300381
v 0.054765 6.522554 7.877894
v -0.752221 5.154921 7.877894
v -0.752221 6.522554 7.877894
v 0.584179 4.327187 9.092891
v 0.063606 4.327187 9.092891
v -0.429228 4.945266 9.092891
v -0.429228 5.780492 9.092891
v -0.553044 9.108366 6.313867
v -0.556984 9.118963 5.956045
v -1.483761 8.774387 5.956045
v -1.479820 8.763790 6.313867
v -0.752221 4.142854 7.877894
v -0.429228 4.327187 9.092891
v -1.427577 4.418580 7.300381
v 0.557094 8.632242 5.996065
v 1.452464 8.239936 5.996065
v 0.438568 8.361727 6.273850
v 1.333939 7.969422 6.273850
v -0.353915 8.572788 5.956045
v -0.283451 8.383266 6.313867
v -1.280692 8.228210 5.956045
v -1.210228 8.038691 6.313867
vt 0.3750 0.0000
vt 0.4447 0.0000
vt 0.4447 0.0000
vt 0.3750 0.0000
vt 0.4447 0.2500
vt 0.3750 0.2500
vt 0.3750 0.2500
vt 0.4447 0.2500
vt 0.3750 0.5000
vt 0.4447 0.5000
vt 0.4447 0.5000
vt 0.3750 0.5000
vt 0.4447 0.7500
vt 0.3750 0.7500
vt 0.3750 0.7500
vt 0.4447 0.7500
vt 0.5441 0.5000
vt 0.6250 0.5000
vt 0.6250 0.5000
vt 0.5441 0.5000
vt 0.6250 0.7500
vt 0.5441 0.7500
vt 0.5441 0.7500
vt 0.6250 0.7500
vt 0.5441 0.0000
vt 0.6250 0.0000
vt 0.6250 0.0000
vt 0.5441 0.0000
vt 0.6250 0.2500
vt 0.5441 0.2500
vt 0.5441 0.2500
vt 0.6250 0.2500
vt 0.3750 0.0000
vt 0.4447 0.0000
vt 0.4447 0.0000
vt 0.3750 0.0000
vt 0.3750 0.0000
vt 0.3750 0.0000
vt 0.3750 0.0000
vt 0.3750 0.0000
vt 0.4447 0.7500
vt 0.3750 0.7500
vt 0.3750 0.7500
vt 0.3750 0.7500
vt 0.3750 0.7500
vt 0.3750 0.7500
vt 0.3750 0.7500
vt 0.4447 0.7500
vt 0.6250 0.7500
vt 0.5441 0.7500
vt 0.5441 0.7500
vt 0.6250 0.7500
vt 0.5441 0.0000
vt 0.6250 0.0000
vt 0.6250 0.0000
vt 0.5441 0.0000
vt 0.3241 0.2500
vt 0.2517 0.2500
vt 0.2517 0.2500
vt 0.3241 0.2500
vt 0.2517 0.2500
vt 0.2517 0.2500
vt 0.1831 0.2500
vt 0.1831 0.2500
vt 0.3241 0.2500
vt 0.2517 0.2500
vt 0.2517 0.2500
vt 0.3241 0.2500
vt 0.2517 0.2500
vt 0.3241 0.2500
vt 0.3241 0.2500
vt 0.2517 0.2500
vt 0.2517 0.2500
vt 0.2517 0.2500
vt 0.1831 0.2500
vt 0.1831 0.2500
vt 0.3750 0.1063
vt 0.4447 0.1063
vt 0.4447 0.3009
vt 0.3750 0.3009
vt 0.4447 0.6437
vt 0.3750 0.6437
vt 0.3750 0.9491
vt 0.4447 0.9491
vt 0.4447 1.0000
vt 0.3750 1.0000
vt 0.6250 0.1063
vt 0.6759 0.1063
vt 0.6759 0.2500
vt 0.3241 0.1063
vt 0.3750 0.1063
vt 0.5441 0.3009
vt 0.4447 0.6437
vt 0.5441 0.6437
vt 0.5441 0.9491
vt 0.5441 1.0000
vt 0.4447 0.1063
vt 0.5441 0.1063
vt 0.6250 0.3009
vt 0.5441 0.6437
vt 0.6250 0.6437
vt 0.6250 0.9491
vt 0.6250 1.0000
vt 0.5441 0.1063
vt 0.6250 0.1063
vt 0.6250 0.3733
vt 0.5441 0.3733
vt 0.4447 0.3733
vt 0.3750 0.3733
vt 0.2517 0.1063
vt 0.3241 0.1063
vt 0.3241 0.2500
vt 0.2517 0.2500
vt 0.3750 0.8767
vt 0.4447 0.8767
vt 0.5441 0.8767
vt 0.6250 0.8767
vt 0.7483 0.1063
vt 0.7483 0.2500
vt 0.5441 0.4419
vt 0.6250 0.4419
vt 0.4447 0.4419
vt 0.3750 0.4419
vt 0.1250 0.1063
vt 0.1831 0.1063
vt 0.1831 0.2500
vt 0.1250 0.2500
vt 0.4447 0.8081
vt 0.3750 0.8081
vt 0.5441 0.8081
vt 0.6250 0.8081
vt 0.8169 0.2500
vt 0.8169 0.1063
vt 0.8750 0.1063
vt 0.8750 0.2500
vt 0.3750 0.6437
vt 0.6250 0.6437
vt 0.2517 0.0000
vt 0.3241 0.0000
vt 0.3241 0.0000
vt 0.2517 0.0000
vt 0.3241 0.1063
vt 0.1831 0.1063
vt 0.1831 0.2500
vt 0.3241 0.0000
vt 0.2517 0.0000
vt 0.3241 0.2500
vt 0.3241 0.1063
vt 0.2517 0.2500
vt 0.1831 0.1063
vt 0.1831 0.2500
vt 0.3241 0.0000
vt 0.2517 0.0000
vt 0.1831 0.1063
vt 0.1831 0.2500
vt 0.1831 0.0000
vt 0.1831 0.0000
vt 0.1831 0.0000
vt 0.1831 0.0000
vt 0.6759 0.0000
vt 0.7483 0.0000
vt 0.8169 0.0000
vt 0.8750 0.0000
vt 0.1250 0.0000
vn -0.0000 -1.0000 -0.0000
vn 0.9100 0.4147 0.0000
vn -0.9100 0.4147 -0.0000
vn -0.9029 0.4291 -0.0265
vn 0.9029 0.4291 -0.0265
vn -0.9576 0.0632 -0.2810
vn 0.0000 0.0000 -1.0000
vn 1.0000 -0.0000 0.0000
vn 0.7088 0.0000 0.7055
vn 0.9576 0.0632 -0.2810
vn -0.7088 0.0000 0.7055
vn -1.0000 0.0000 -0.0000
vn -0.4905 0.1962 0.8491
vn -0.7531 -0.1897 -0.6299
vn 0.7531 -0.1897 -0.6299
vn 0.4905 0.1962 0.8491
vn 0.4001 0.9131 -0.0792
vn -0.3483 0.9368 0.0316
vn 0.1585 0.9865 -0.0401
vn 0.1457 0.9068 0.3956
vn 0.1311 0.9277 0.3496
vn -0.9159 0.4013 0.0000
vn -0.0000 0.0000 1.0000
vn 0.9159 -0.4013 0.0000
vn 0.9373 0.3485 0.0000
vn -0.9373 -0.3485 0.0000
vn 0.7405 0.3185 0.5918
vn -0.9967 0.0300 -0.0750
vn -0.0859 -0.9896 -0.1151
vn -0.7405 0.3185 0.5918
vn 0.0859 -0.9896 -0.1151
vn 0.9967 0.0300 -0.0750
vn 0.9297 0.3683 0.0000
vn 0.9119 0.4063 -0.0583
vn 0.6501 0.7426 -0.1611
vn 0.7214 0.6925 0.0000
vn 0.1294 -0.9421 0.3092
vn 0.2074 -0.9518 0.2261
vn 0.2072 -0.9697 0.1292
vn -0.3763 -0.9082 0.1833
vn 0.4183 0.1876 -0.8887
vn 0.2755 -0.0408 -0.9604
vn 0.2378 0.2390 -0.9415
vn 0.4156 0.3063 -0.8564
vn 0.7713 0.6230 -0.1304
vn 0.5040 0.8328 -0.2289
vn 0.4126 -0.9044 0.1083
vn 0.7126 -0.7000 0.0461
vn 0.6857 0.7243 -0.0724
vn 0.3900 0.9193 -0.0526
vn 0.4411 -0.8904 0.1124
vn 0.7544 -0.6551 0.0411
vn 0.0005 0.9993 -0.0363
vn 0.0000 0.9568 -0.2909
vn -0.0000 0.9613 -0.2757
vn -0.0129 0.9999 0.0111
vn -0.0004 -0.9375 0.3480
vn 0.0000 -0.9606 0.2779
vn -0.0000 -0.9877 0.1564
vn 0.0005 -0.9864 0.1646
vn 0.0002 -0.0226 -0.9997
vn 0.0011 0.2226 -0.9749
vn -0.4920 0.8403 -0.2277
vn -0.3878 0.9201 -0.0553
vn -0.6361 0.7678 -0.0768
vn -0.7277 0.6714 -0.1407
vn -0.6435 0.7493 -0.1565
vn -0.8893 0.4527 -0.0649
vn -0.6810 0.7323 0.0011
vn -0.9110 0.4123 -0.0000
vn 0.3092 -0.9304 0.1970
vn -0.1758 -0.9748 0.1373
vn -0.2006 -0.9543 0.2216
vn -0.1243 -0.9447 0.3035
vn -0.4029 -0.9092 0.1050
vn -0.6644 -0.7458 0.0491
vn -0.4311 -0.8957 0.1091
vn -0.7092 -0.7037 0.0442
vn -0.2419 0.2430 -0.9394
vn -0.2765 -0.0383 -0.9603
vn -0.3737 0.1827 -0.9094
vn -0.3713 0.3126 -0.8743
vn 0.8897 -0.0000 0.4566
vn 0.8091 -0.1414 0.5705
vn 0.7158 -0.2569 0.6493
vn -0.8091 -0.1414 0.5705
vn -0.8897 0.0000 0.4566
vn -0.7158 -0.2569 0.6493
vn -0.9086 0.1545 -0.3881
vn -0.9058 0.1103 -0.4091
vn -0.8995 0.0564 -0.4332
vn 0.9058 0.1103 -0.4091
vn 0.9086 0.1545 -0.3881
vn 0.8995 0.0564 -0.4332
vn 0.0000 -1.0000 0.0011
vn 0.5450 -0.8384 0.0009
vn 0.9996 0.0179 0.0200
vn 0.9859 0.1636 0.0347
vn 0.9997 -0.0188 0.0163
vn -0.9859 0.1636 0.0347
vn -0.9996 0.0179 0.0200
vn -0.9997 -0.0188 0.0163
vn -0.0030 -0.8405 0.5419
vn 0.3340 -0.7971 0.5031
vn 0.0046 -0.8406 0.5417
vn 0.5224 0.0128 0.8526
vn 0.5095 0.0589 0.8585
vn 0.5268 -0.0040 0.8500
vn 0.0000 0.4315 0.9021
vn -0.5095 0.0589 0.8585
vn -0.5224 0.0128 0.8526
vn -0.5268 -0.0040 0.8500
vn 0.0000 -0.9887 0.1500
vn 0.9664 -0.0000 0.2569
vn 0.0000 0.8534 0.5212
vn -0.9664 0.0000 0.2569
vn -0.3467 -0.7833 0.5160
vn -0.5661 -0.8244 0.0009
vn -0.1080 0.9047 0.4122
vn -0.6531 0.7193 0.2367
vn 0.2684 0.9580 0.1008
vn 0.3466 0.8674 0.3569
vn -0.1829 0.9787 0.0933
vn -0.1327 0.8900 0.4362
vn -0.1628 0.8969 0.4111
vn 0.5555 -0.1341 0.8206
vn 0.9101 -0.4136 -0.0259
vn 0.6213 -0.3488 0.7016
vn 0.8897 0.0000 -0.4566
vn 0.3620 -0.3187 -0.8760
vn 0.2720 -0.4089 -0.8711
vn 0.0003 -0.4416 -0.8972
vn -0.2779 -0.4041 -0.8715
vn -0.3217 -0.3237 -0.8898
vn -0.8897 0.0000 -0.4566
vn -0.6213 -0.3488 0.7016
vn -0.9101 -0.4136 -0.0259
vn -0.5555 -0.1341 0.8206
usemtl initialShadingGroup
s off
f 74/1/1 75/2/1 76/3/1 77/4/1
f 6/5/2 5/6/2 4/7/2 3/8/2
f 61/9/3 26/10/3 10/11/3 9/12/3
f 78/13/1 79/14/1 80/15/1 81/16/1
f 27/17/4 58/18/4 35/19/4 34/20/4
f 82/21/1 83/22/1 84/23/1 85/24/1
f 86/25/1 87/26/1 88/27/1 89/28/1
f 20/29/5 23/30/5 39/31/5 42/32/5
f 16/33/6 15/34/6 75/2/6 74/1/6
f 15/34/7 90/35/7 76/3/7 75/2/7
f 90/35/8 91/36/8 77/4/8 76/3/8
f 92/37/9 93/38/9 94/39/9 95/40/9
f 65/41/10 64/42/10 79/14/10 78/13/10
f 96/43/11 97/44/11 98/45/11 99/46/11
f 100/47/12 101/48/12 81/16/12 80/15/12
f 101/48/7 65/41/7 78/13/7 81/16/7
f 71/49/8 69/50/8 83/22/8 82/21/8
f 69/50/13 102/51/13 84/23/13 83/22/13
f 102/51/12 103/52/12 85/24/12 84/23/12
f 103/52/14 71/49/14 82/21/14 85/24/14
f 30/53/12 38/54/12 87/26/12 86/25/12
f 38/54/15 104/55/15 88/27/15 87/26/15
f 104/55/8 105/56/8 89/28/8 88/27/8
f 105/56/16 30/53/16 86/25/16 89/28/16
f 110/57/17 111/58/17 112/59/17 113/60/17
f 128/61/18 129/62/18 130/63/18 131/64/18
f 8/65/19 46/66/19 135/67/19 136/68/19
f 120/69/20 108/70/20 138/71/20 137/72/20
f 108/70/21 8/65/21 136/68/21 138/71/21
f 136/68/7 135/67/7 111/58/7 110/57/7
f 135/67/22 137/72/22 112/59/22 111/58/22
f 137/72/23 138/71/23 113/60/23 112/59/23
f 138/71/24 136/68/24 110/57/24 113/60/24
f 140/73/25 139/74/25 129/62/25 128/61/25
f 139/74/7 141/75/7 130/63/7 129/62/7
f 141/75/26 142/76/26 131/64/26 130/63/26
f 142/76/23 140/73/23 128/61/23 131/64/23
f 91/36/27 16/33/27 93/38/27 92/37/27
f 16/33/28 74/1/28 94/39/28 93/38/28
f 74/1/29 77/4/29 95/40/29 94/39/29
f 77/4/8 91/36/8 92/37/8 95/40/8
f 64/42/30 100/47/30 97/44/30 96/43/30
f 100/47/12 80/15/12 98/45/12 97/44/12
f 80/15/31 79/14/31 99/46/31 98/45/31
f 79/14/32 64/42/32 96/43/32 99/46/32
s 1
f 1/77/8 2/78/8 3/8/8 4/7/8
f 5/6/33 6/5/34 7/79/35 8/80/36
f 9/12/12 10/11/12 11/81/12 12/82/12
f 13/83/37 14/84/38 15/85/39 16/86/40
f 17/87/41 18/88/42 19/89/43 20/29/44
f 21/90/23 22/91/23 5/6/23 8/65/23
f 6/5/34 23/30/45 24/92/46 7/79/35
f 25/93/12 26/10/12 27/17/12 28/94/12
f 15/85/39 14/84/38 29/95/47 30/96/48
f 6/5/8 31/97/8 32/98/8 23/30/8
f 23/30/45 20/29/49 19/99/50 24/92/46
f 33/100/12 34/20/12 35/19/12 36/101/12
f 30/96/48 29/95/47 37/102/51 38/103/52
f 39/31/8 40/104/8 41/105/8 42/32/8
f 24/92/46 19/99/50 43/106/53 44/107/54
f 7/79/35 24/92/46 44/107/54 45/108/55
f 8/80/36 7/79/35 45/108/55 46/109/56
f 47/110/23 48/111/23 49/112/23 50/113/23
f 51/114/57 52/115/58 14/84/38 13/83/37
f 29/95/47 14/84/38 52/115/58 53/116/59
f 37/102/51 29/95/47 53/116/59 54/117/60
f 19/89/43 18/88/42 55/118/61 43/119/62
f 56/120/63 57/121/64 58/18/65 27/17/66
f 59/122/67 56/120/63 27/17/66 26/10/68
f 60/123/69 59/122/67 26/10/68 61/9/70
f 62/124/23 63/125/23 60/126/23 61/127/23
f 64/42/71 65/41/72 66/128/73 67/129/74
f 68/130/75 66/128/73 65/41/72 69/50/76
f 70/131/77 68/130/75 69/50/76 71/49/78
f 57/132/79 72/133/80 73/134/81 58/135/82
f 31/97/7 6/5/7 3/8/7 2/78/7
f 5/6/83 22/91/84 1/77/85 4/7/83
f 26/10/7 25/93/7 11/81/7 10/11/7
f 62/136/86 61/9/87 9/12/87 12/82/88
f 28/94/23 27/17/23 34/20/23 33/100/23
f 58/18/89 73/137/90 36/101/91 35/19/89
f 23/30/23 32/98/23 40/104/23 39/31/23
f 17/87/92 20/29/93 42/32/93 41/105/94
f 51/138/95 13/139/96 106/140/96 107/141/95
f 21/90/97 8/65/98 108/70/98 109/142/99
f 60/126/100 63/125/101 114/143/102 115/144/100
f 107/141/103 106/140/104 116/145/104 117/146/105
f 109/142/106 108/70/107 118/147/107 119/148/108
f 108/70/109 120/69/109 121/149/109 118/147/109
f 115/144/110 114/143/111 122/150/112 123/151/110
f 117/146/113 116/145/113 124/152/113 125/153/113
f 119/148/114 118/147/114 49/112/114 48/111/114
f 118/147/115 121/149/115 50/113/115 49/112/115
f 123/151/116 122/150/116 126/154/116 127/155/116
f 46/109/56 45/108/55 59/122/67 60/123/69
f 121/149/109 120/69/109 115/144/109 123/151/109
f 50/113/115 121/149/115 123/151/115 127/155/115
f 126/154/23 47/110/23 50/113/23 127/155/23
f 132/156/113 117/146/113 125/153/113 133/157/113
f 134/158/117 107/141/103 117/146/105 132/156/117
f 67/159/118 51/138/95 107/141/95 134/158/118
f 67/129/74 66/128/73 52/115/58 51/114/57
f 53/116/59 52/115/58 66/128/73 68/130/75
f 54/117/60 53/116/59 68/130/75 70/131/77
f 43/119/62 55/118/61 72/133/80 57/132/79
f 44/107/54 43/106/53 57/121/64 56/120/63
f 45/108/55 44/107/54 56/120/63 59/122/67
f 46/66/56 120/69/119 137/72/120 135/67/120
f 120/69/119 46/66/56 139/74/121 140/73/122
f 46/66/56 60/126/69 141/75/123 139/74/121
f 60/126/69 115/144/124 142/76/125 141/75/123
f 115/144/124 120/69/119 140/73/122 142/76/125
f 125/153/23 124/152/23 48/111/23 47/110/23
f 116/145/114 119/148/114 48/111/114 124/152/114
f 106/140/126 109/142/106 119/148/108 116/145/126
f 13/139/127 21/90/97 109/142/99 106/140/127
f 13/139/23 16/33/23 22/91/23 21/90/23
f 1/77/85 22/91/84 16/33/128 91/36/128
f 91/36/8 90/35/8 2/78/8 1/77/8
f 15/34/7 31/97/7 2/78/7 90/35/7
f 32/98/8 31/97/8 15/34/8 30/53/8
f 40/104/23 32/98/23 30/53/23 105/56/23
f 41/105/8 40/104/8 105/56/8 104/55/8
f 38/54/129 17/87/92 41/105/94 104/55/129
f 38/54/130 37/160/131 18/88/42 17/87/41
f 55/118/61 18/88/42 37/160/131 54/161/132
f 72/133/80 55/118/61 54/161/132 70/162/133
f 73/134/81 72/133/80 70/162/133 71/163/134
f 36/101/91 73/137/90 71/49/135 103/52/135
f 102/51/12 33/100/12 36/101/12 103/52/12
f 69/50/23 28/94/23 33/100/23 102/51/23
f 65/41/12 25/93/12 28/94/12 69/50/12
f 11/81/7 25/93/7 65/41/7 101/48/7
f 12/82/12 11/81/12 101/48/12 100/47/12
f 64/42/136 62/136/86 12/82/88 100/47/136
f 64/164/23 67/159/23 63/125/23 62/124/23
f 114/143/102 63/125/101 67/159/137 134/158/137
f 122/150/112 114/143/111 134/158/138 132/156/138
f 126/154/116 122/150/116 132/156/116 133/157/116
f 133/157/23 125/153/23 47/110/23 126/154/23
