# This file uses centimeters as units for non-parametric coordinates.

mtllib Idol_Head.mtl
g default
v -0.543957 -0.078094 0.268236
v 0.543957 -0.078094 0.268236
v -0.500000 0.921906 0.237612
v 0.500000 0.921906 0.237612
v -0.500000 0.921906 -0.237612
v 0.500000 0.921906 -0.237612
v -0.543957 -0.078094 -0.268236
v 0.543957 -0.078094 -0.268236
v -0.555918 1.216693 0.642032
v 0.555918 1.216693 0.642032
v 0.808245 1.384411 -0.527434
v -0.808245 1.381377 -0.521527
v -0.808245 2.397622 0.732886
v 0.808245 2.397622 0.732886
v 0.808245 2.102690 -0.554202
v -0.808245 2.102690 -0.554202
v 0.000000 2.530817 1.272979
v 0.000000 1.897318 -1.059775
v 0.000000 1.462781 -0.973904
v 0.000000 0.921906 -0.500000
v 0.000000 -0.078094 -0.588643
v 0.000000 -0.078094 0.588643
v 0.000000 0.706527 0.500000
v 0.000000 1.216693 1.296448
v -0.142986 0.718968 0.834456
v 0.000000 0.720653 0.754842
v 0.000000 0.851667 1.109343
v -0.231135 0.853207 0.837553
v 0.140690 0.720580 0.838227
v 0.231135 0.853207 0.837553
v -0.675187 3.056389 0.887281
v -0.000000 3.056389 1.167761
v -0.000000 3.005907 -0.753003
v -0.675187 3.005907 -0.472522
v -0.988203 2.425643 0.847799
v 0.000000 2.589396 1.642969
v 0.988203 2.425643 0.847799
v 1.053783 2.073108 -0.628596
v 0.675187 3.005907 -0.472522
v 0.675187 3.056389 0.887281
v -1.053783 2.073108 -0.628596
v 0.000000 1.872088 -1.212454
v -0.425507 3.185888 0.552931
v -0.000000 3.185888 0.697814
v -0.000000 3.154074 -0.294364
v -0.425507 3.154074 -0.149481
v 0.425507 3.185888 0.552931
v 0.425507 3.154074 -0.149481
v -0.425507 3.382593 0.545545
v -0.000000 3.382593 0.690428
v -0.000000 3.350779 -0.301750
v -0.425507 3.350779 -0.156867
v 0.425507 3.382593 0.545545
v 0.425507 3.350779 -0.156867
v -0.277733 3.416631 0.422581
v -0.000000 3.416631 0.517147
v -0.000000 3.395866 -0.130459
v -0.277733 3.395866 -0.035892
v 0.277733 3.416631 0.422581
v 0.277733 3.395866 -0.035892
v -0.171712 3.816174 0.312190
v -0.000000 3.816174 0.406757
v -0.000000 3.795408 -0.240849
v -0.171712 3.795408 -0.146282
v 0.171712 3.816174 0.312190
v 0.171712 3.795408 -0.146282
v -0.096390 4.167600 0.081852
v -0.000000 4.167600 0.176419
v -0.000000 4.146834 -0.471187
v -0.096390 4.146834 -0.376620
v 0.096390 4.167600 0.081852
v 0.096390 4.146834 -0.376620
v -0.000000 4.425220 -0.181966
v -0.000000 4.404455 -0.703483
v -0.804015 2.727006 0.834431
v -0.804015 2.554298 -0.545494
v 0.000000 2.497214 -0.960706
v 0.804015 2.554298 -0.545494
v 0.804015 2.727006 0.834431
v 0.000000 2.793603 1.346120
v 0.000000 3.232119 1.346120
v -0.426174 3.069337 1.214223
v 0.000000 3.276000 1.469442
v 0.426174 3.069337 1.124792
v -0.714816 3.267882 -0.537838
v -0.196112 2.973441 -1.062081
v -0.879816 2.955344 -0.042553
v 0.650756 3.263334 -0.623724
v 0.879816 2.955344 -0.042553
v 0.272251 2.977989 -0.984625
v -0.746877 1.807158 0.687459
v -0.808245 1.742033 -0.537865
v 0.000000 1.725652 -1.016840
v 0.808245 1.743551 -0.540818
v 0.746877 1.807158 0.687459
v -0.200836 1.500105 1.300190
v 0.000000 1.358940 1.365493
v -0.117001 1.835883 1.240210
v 0.117001 1.835883 1.240210
v 0.200836 1.500105 1.300190
v -0.126615 1.940769 1.136325
v 0.126615 1.940769 1.136325
v -0.136228 1.585446 1.426732
v 0.000000 1.570202 1.588320
v 0.000000 1.746145 1.474588
v -0.089547 1.800820 1.355627
v 0.089547 1.800820 1.355627
v 0.136228 1.585446 1.426732
v 0.000000 2.092748 1.276328
v -0.070230 2.082308 1.147361
v 0.070230 2.082308 1.147361
v -0.460627 2.386657 1.171922
v 0.000000 2.370743 1.315820
v 0.460627 2.386657 1.171922
vt 0.375000 0.000000
vt 0.625000 0.000000
vt 0.375000 0.250000
vt 0.625000 0.250000
vt 0.375000 0.500000
vt 0.625000 0.500000
vt 0.375000 0.750000
vt 0.625000 0.750000
vt 0.375000 1.000000
vt 0.625000 1.000000
vt 0.875000 0.000000
vt 0.875000 0.250000
vt 0.125000 0.000000
vt 0.125000 0.250000
vt 0.375000 0.250000
vt 0.625000 0.250000
vt 0.625000 0.500000
vt 0.375000 0.500000
vt 0.375000 0.250000
vt 0.625000 0.250000
vt 0.625000 0.500000
vt 0.375000 0.500000
vt 0.375000 0.250000
vt 0.625000 0.250000
vt 0.625000 0.500000
vt 0.375000 0.500000
vt 0.500000 0.250000
vt 0.500000 0.250000
vt 0.500000 0.500000
vt 0.500000 0.500000
vt 0.500000 0.500000
vt 0.500000 0.500000
vt 0.500000 0.750000
vt 0.500000 0.000000
vt 0.500000 1.000000
vt 0.500000 0.250000
vt 0.500000 0.250000
vt 0.375000 0.250000
vt 0.500000 0.250000
vt 0.500000 0.250000
vt 0.375000 0.250000
vt 0.625000 0.250000
vt 0.625000 0.250000
vt 0.375000 0.250000
vt 0.500000 0.250000
vt 0.625000 0.250000
vt 0.625000 0.500000
vt 0.500000 0.500000
vt 0.375000 0.500000
vt 0.375000 0.250000
vt 0.500000 0.250000
vt 0.500000 0.500000
vt 0.375000 0.500000
vt 0.625000 0.250000
vt 0.625000 0.500000
vt 0.375000 0.250000
vt 0.500000 0.250000
vt 0.500000 0.500000
vt 0.375000 0.500000
vt 0.625000 0.250000
vt 0.625000 0.500000
vt 0.375000 0.250000
vt 0.500000 0.250000
vt 0.500000 0.500000
vt 0.375000 0.500000
vt 0.625000 0.250000
vt 0.625000 0.500000
vt 0.375000 0.250000
vt 0.500000 0.250000
vt 0.500000 0.500000
vt 0.375000 0.500000
vt 0.625000 0.250000
vt 0.625000 0.500000
vt 0.375000 0.250000
vt 0.500000 0.250000
vt 0.500000 0.500000
vt 0.375000 0.500000
vt 0.625000 0.250000
vt 0.625000 0.500000
vt 0.500000 0.250000
vt 0.500000 0.500000
vt 0.375000 0.250000
vt 0.375000 0.500000
vt 0.500000 0.500000
vt 0.625000 0.500000
vt 0.625000 0.250000
vt 0.500000 0.250000
vt 0.500000 0.250000
vt 0.375000 0.250000
vt 0.500000 0.250000
vt 0.625000 0.250000
vt 0.375000 0.500000
vt 0.500000 0.500000
vt 0.375000 0.250000
vt 0.625000 0.500000
vt 0.625000 0.250000
vt 0.500000 0.500000
vt 0.500000 0.250000
vt 0.375000 0.250000
vt 0.375000 0.500000
vt 0.500000 0.500000
vt 0.625000 0.500000
vt 0.625000 0.250000
vt 0.375000 0.250000
vt 0.500000 0.250000
vt 0.375000 0.250000
vt 0.625000 0.250000
vt 0.625000 0.250000
vt 0.500000 0.250000
vt 0.375000 0.250000
vt 0.625000 0.250000
vt 0.375000 0.250000
vt 0.500000 0.250000
vt 0.375000 0.250000
vt 0.625000 0.250000
vt 0.625000 0.250000
vt 0.375000 0.250000
vt 0.625000 0.250000
vt 0.500000 0.250000
vt 0.375000 0.250000
vt 0.625000 0.250000
vn -0.475137 0.070320 0.877098
vn 0.000000 0.079917 0.996802
vn 0.000000 0.079917 0.996802
vn -0.475137 0.070320 0.877098
vn -0.448366 -0.286724 -0.846616
vn -0.000290 -0.328437 -0.944526
vn 0.000000 0.071718 -0.997425
vn -0.486486 0.062659 -0.871439
vn 0.000000 -1.000000 0.000000
vn 0.000000 -1.000000 0.000000
vn 0.000000 -1.000000 0.000000
vn 0.000000 -1.000000 0.000000
vn 0.999035 0.043914 0.000000
vn 0.999035 0.043914 0.000000
vn 0.980280 -0.192465 0.044809
vn 0.974806 -0.217485 0.049522
vn -0.999035 0.043914 0.000000
vn -0.999035 0.043914 0.000000
vn -0.974686 -0.217958 0.049817
vn -0.980282 -0.192415 0.044985
vn -0.271568 -0.803805 0.529290
vn -0.005766 -0.835123 0.550032
vn -0.002045 -0.835135 0.550041
vn -0.271568 -0.803805 0.529290
vn 0.891930 -0.442781 0.091687
vn 0.891930 -0.442781 0.091687
vn -0.340840 -0.632165 -0.695841
vn 0.000359 -0.672909 -0.739726
vn -0.890813 -0.444864 0.092456
vn -0.890813 -0.444864 0.092456
vn -0.671909 0.380337 0.635517
vn -0.000000 0.513529 0.858072
vn -0.000000 0.529431 0.848353
vn -0.726860 0.378978 0.572757
vn 0.972675 -0.199601 0.118588
vn 0.972675 -0.199601 0.118588
vn 0.988155 -0.133083 0.076419
vn 0.989143 -0.127583 0.072934
vn -0.003816 -0.092409 -0.995714
vn -0.495049 -0.082224 -0.864966
vn -0.510114 -0.087728 -0.855621
vn -0.002668 -0.100056 -0.994978
vn -0.972705 -0.198946 0.119439
vn -0.972705 -0.198946 0.119439
vn -0.989193 -0.127010 0.073251
vn -0.988249 -0.132261 0.076621
vn 0.491899 -0.078511 -0.867105
vn 0.507910 -0.083768 -0.857328
vn 0.447583 -0.287371 -0.846810
vn 0.338919 -0.633530 -0.695539
vn 0.486486 0.062659 -0.871439
vn 0.000000 -1.000000 0.000000
vn 0.000000 -1.000000 0.000000
vn 0.475137 0.070320 0.877098
vn 0.475137 0.070320 0.877098
vn 0.271456 -0.803723 0.529472
vn 0.271456 -0.803723 0.529472
vn 0.726860 0.378979 0.572757
vn 0.671909 0.380337 0.635517
vn -0.291236 -0.952495 -0.089078
vn 0.003284 -0.995901 -0.090388
vn 0.005311 -0.995894 -0.090369
vn -0.291236 -0.952495 -0.089078
vn 0.000000 -0.456819 0.889560
vn -0.723392 -0.315405 0.614185
vn -0.723392 -0.315405 0.614185
vn 0.000000 -0.456819 0.889560
vn -0.788550 -0.541562 0.291376
vn -0.788550 -0.541562 0.291376
vn -0.788550 -0.541562 0.291376
vn -0.788550 -0.541562 0.291376
vn 0.296331 -0.951408 -0.083731
vn 0.296331 -0.951408 -0.083731
vn 0.787208 -0.543981 0.290497
vn 0.787208 -0.543981 0.290497
vn 0.787208 -0.543981 0.290497
vn 0.787208 -0.543981 0.290497
vn 0.723392 -0.315405 0.614185
vn 0.723392 -0.315405 0.614185
vn 0.025068 -0.982463 0.184763
vn 0.025068 -0.982463 0.184763
vn 0.025068 -0.982463 0.184763
vn 0.025068 -0.982463 0.184763
vn -0.025232 -0.973457 0.227476
vn -0.025232 -0.973457 0.227476
vn -0.025232 -0.973457 0.227476
vn -0.025232 -0.973457 0.227476
vn -0.045234 -0.958829 0.280359
vn -0.045234 -0.958829 0.280359
vn -0.045234 -0.958829 0.280359
vn -0.045234 -0.958829 0.280359
vn 0.025232 -0.973457 0.227477
vn 0.025232 -0.973457 0.227477
vn 0.025232 -0.973457 0.227477
vn 0.025232 -0.973457 0.227477
vn -0.025068 -0.982463 0.184764
vn -0.025068 -0.982463 0.184764
vn -0.025068 -0.982463 0.184764
vn -0.025068 -0.982463 0.184764
vn 0.045234 -0.958829 0.280358
vn 0.045234 -0.958829 0.280358
vn 0.045234 -0.958829 0.280358
vn 0.045234 -0.958829 0.280358
vn -0.360197 0.625759 0.691870
vn -0.000000 0.667809 0.744333
vn -0.106184 0.955630 0.274767
vn -0.106184 0.955630 0.274767
vn -0.000000 0.580132 -0.814523
vn -0.338417 0.557455 -0.758102
vn -0.122628 0.940357 -0.317320
vn -0.122628 0.940357 -0.317320
vn -0.901426 0.431993 -0.028520
vn -0.888974 0.457034 -0.029069
vn -0.486276 0.873110 -0.034843
vn -0.486276 0.873110 -0.034843
vn 0.360197 0.625759 0.691870
vn 0.106184 0.955630 0.274767
vn 0.106184 0.955630 0.274767
vn 0.888974 0.457034 -0.029069
vn 0.901426 0.431993 -0.028520
vn 0.486276 0.873110 -0.034843
vn 0.486276 0.873110 -0.034843
vn 0.338417 0.557455 -0.758101
vn 0.122628 0.940357 -0.317319
vn 0.122628 0.940357 -0.317319
vn -0.322120 0.035522 0.946032
vn -0.322120 0.035522 0.946032
vn -0.285906 0.461737 0.839677
vn -0.294034 0.409672 0.863547
vn -0.322120 -0.035522 -0.946032
vn -0.322120 -0.035522 -0.946032
vn -0.302956 0.341408 -0.889752
vn -0.294520 0.406296 -0.864975
vn -1.000000 0.000000 0.000000
vn -1.000000 0.000000 0.000000
vn -0.950711 0.309762 -0.014030
vn -0.952106 0.305456 -0.013835
vn 0.322120 0.035522 0.946032
vn 0.322120 0.035522 0.946032
vn 0.294033 0.409672 0.863547
vn 0.285906 0.461737 0.839677
vn 1.000000 0.000000 0.000000
vn 1.000000 0.000000 0.000000
vn 0.952106 0.305456 -0.013835
vn 0.950711 0.309762 -0.014030
vn 0.322119 -0.035522 -0.946033
vn 0.322119 -0.035522 -0.946033
vn 0.294520 0.406296 -0.864975
vn 0.302956 0.341408 -0.889752
vn -0.065489 0.979142 0.192336
vn -0.065489 0.979142 0.192336
vn -0.086348 0.963449 -0.253596
vn -0.086348 0.963449 -0.253596
vn -0.258642 0.964984 -0.043707
vn -0.258642 0.964984 -0.043707
vn 0.065489 0.979142 0.192335
vn 0.065489 0.979142 0.192335
vn 0.258642 0.964984 -0.043707
vn 0.258642 0.964984 -0.043707
vn 0.086348 0.963449 -0.253595
vn 0.086348 0.963449 -0.253595
vn -0.370883 0.292715 0.881342
vn -0.370883 0.292715 0.881342
vn -0.417008 0.370610 0.829911
vn -0.425314 0.385048 0.819052
vn -0.380104 -0.199129 -0.903254
vn -0.380104 -0.199129 -0.903254
vn -0.423278 -0.265115 -0.866343
vn -0.449042 -0.305994 -0.839482
vn -0.967267 0.253499 -0.011482
vn -0.967267 0.253499 -0.011482
vn -0.971540 0.236631 -0.010718
vn -0.974343 0.224838 -0.010184
vn 0.370883 0.292715 0.881342
vn 0.370883 0.292715 0.881342
vn 0.425314 0.385048 0.819052
vn 0.417008 0.370610 0.829911
vn 0.967267 0.253500 -0.011482
vn 0.967267 0.253500 -0.011482
vn 0.974343 0.224838 -0.010184
vn 0.971541 0.236631 -0.010718
vn 0.380104 -0.199129 -0.903254
vn 0.380104 -0.199129 -0.903254
vn 0.449042 -0.305994 -0.839482
vn 0.423278 -0.265115 -0.866343
vn -0.000000 0.627897 0.778297
vn -0.499811 0.583496 0.640095
vn -0.529353 -0.441397 -0.724537
vn 0.000000 -0.563111 -0.826381
vn -0.971344 0.237444 -0.010508
vn -0.956606 0.291114 -0.012542
vn 0.499810 0.583496 0.640096
vn 0.956606 0.291115 -0.012542
vn 0.971344 0.237445 -0.010508
vn 0.529353 -0.441397 -0.724537
vn -0.000002 0.811981 0.583684
vn -0.000001 -0.669661 -0.742667
vn -0.941743 0.336032 -0.014240
vn -0.941743 0.336032 -0.014240
vn 0.941742 0.336033 -0.014241
vn 0.941742 0.336033 -0.014241
vn -0.948093 0.316943 -0.025820
vn -0.948093 0.316943 -0.025820
vn 0.000000 0.333325 -0.942812
vn -0.395459 0.306153 -0.865957
vn 0.395459 0.306154 -0.865957
vn 0.948093 0.316943 -0.025820
vn 0.948093 0.316943 -0.025820
vn 0.000000 0.314837 0.949146
vn 0.463081 0.279045 0.841243
vn -0.463081 0.279045 0.841243
vn -0.248102 0.912678 -0.324752
vn -0.248102 0.912678 -0.324752
vn -0.248102 0.912678 -0.324752
vn 0.182637 0.926289 -0.329595
vn 0.182637 0.926289 -0.329595
vn 0.182637 0.926289 -0.329595
vn 0.418256 0.225569 -0.879875
vn 0.418256 0.225569 -0.879875
vn 0.418256 0.225569 -0.879875
vn 0.418256 0.225569 -0.879875
vn -0.795736 0.501410 0.339695
vn -0.795736 0.501410 0.339695
vn -0.795736 0.501410 0.339695
vn -0.614274 0.147106 0.775259
vn -0.614274 0.147106 0.775260
vn -0.614274 0.147106 0.775260
vn -0.614274 0.147106 0.775259
vn -0.499327 0.079212 -0.862785
vn -0.499327 0.079212 -0.862785
vn -0.499327 0.079212 -0.862785
vn -0.499327 0.079212 -0.862785
vn 0.646345 0.216155 0.731789
vn 0.646345 0.216155 0.731789
vn 0.646345 0.216155 0.731789
vn 0.646345 0.216155 0.731789
vn 0.765032 0.486304 0.422178
vn 0.765032 0.486304 0.422178
vn 0.765032 0.486304 0.422178
vn 0.595466 0.116122 0.794944
vn 0.595466 0.116122 0.794944
vn 0.595466 0.116122 0.794944
vn 0.595466 0.116122 0.794944
vn 0.811083 0.218507 -0.542586
vn 0.811083 0.218507 -0.542586
vn 0.811083 0.218507 -0.542586
vn -0.546031 0.121028 -0.828977
vn -0.546031 0.121028 -0.828977
vn -0.546031 0.121028 -0.828977
vn -0.546031 0.121028 -0.828977
vn 0.993127 0.071441 0.092713
vn 0.993127 0.071441 0.092713
vn 0.993127 0.071441 0.092713
vn 0.993127 0.071441 0.092713
vn -0.972331 0.227365 -0.053641
vn -0.972331 0.227365 -0.053641
vn -0.972331 0.227365 -0.053641
vn -0.972331 0.227365 -0.053641
vn -0.830781 0.516917 0.206397
vn -0.830781 0.516917 0.206397
vn -0.830781 0.516917 0.206397
vn -0.992186 0.038838 0.118569
vn -0.992186 0.038838 0.118569
vn -0.992186 0.038838 0.118569
vn -0.992186 0.038838 0.118569
vn 0.830781 0.516917 0.206397
vn 0.830781 0.516917 0.206397
vn 0.830781 0.516917 0.206397
vn 0.966043 0.245003 -0.082060
vn 0.966043 0.245003 -0.082060
vn 0.966043 0.245003 -0.082060
vn 0.966043 0.245003 -0.082060
vn -0.569658 0.126688 0.812059
vn -0.569658 0.126688 0.812059
vn -0.569658 0.126688 0.812059
vn -0.569658 0.126688 0.812059
vn 0.519340 0.115392 -0.846741
vn 0.519340 0.115392 -0.846741
vn 0.519340 0.115392 -0.846741
vn 0.519340 0.115392 -0.846741
vn -0.595453 0.300115 -0.745229
vn -0.595453 0.300115 -0.745229
vn -0.595453 0.300115 -0.745230
vn 0.000000 0.567421 0.823428
vn -0.746125 0.377792 0.548243
vn -0.997290 -0.065379 0.033729
vn -0.997290 -0.065379 0.033729
vn -0.527250 -0.094031 -0.844492
vn -0.002100 -0.108091 -0.994139
vn 0.525970 -0.089736 -0.845756
vn 0.997279 -0.065585 0.033679
vn 0.997279 -0.065585 0.033679
vn 0.746125 0.377792 0.548243
vn -0.652656 -0.470339 0.593987
vn -0.652656 -0.470339 0.593987
vn -0.652656 -0.470339 0.593987
vn -0.652656 -0.470339 0.593987
vn -0.763429 -0.078221 0.641138
vn -0.763429 -0.078221 0.641138
vn -0.763429 -0.078221 0.641138
vn -0.763429 -0.078221 0.641138
vn 0.652656 -0.470339 0.593987
vn 0.652656 -0.470339 0.593987
vn 0.652656 -0.470339 0.593987
vn 0.652656 -0.470339 0.593987
vn 0.763429 -0.078221 0.641138
vn 0.763429 -0.078221 0.641138
vn 0.763429 -0.078221 0.641138
vn 0.763429 -0.078221 0.641138
vn -0.426594 -0.376440 0.822381
vn -0.426594 -0.376440 0.822381
vn -0.426594 -0.376440 0.822381
vn -0.426594 -0.376440 0.822381
vn -0.587384 0.008075 0.809268
vn -0.587384 0.008075 0.809268
vn -0.587384 0.008075 0.809268
vn -0.587384 0.008075 0.809268
vn 0.587384 0.008075 0.809268
vn 0.587384 0.008075 0.809268
vn 0.587384 0.008075 0.809268
vn 0.587384 0.008075 0.809268
vn 0.426594 -0.376440 0.822381
vn 0.426594 -0.376440 0.822381
vn 0.426594 -0.376440 0.822381
vn 0.426594 -0.376440 0.822381
vn -0.628721 -0.531582 0.567565
vn -0.628721 -0.531582 0.567565
vn -0.628721 -0.531582 0.567565
vn -0.628721 -0.531582 0.567565
vn -0.914042 0.285078 0.288546
vn -0.914042 0.285078 0.288546
vn -0.914042 0.285078 0.288546
vn -0.914042 0.285078 0.288546
vn 0.628721 -0.531582 0.567565
vn 0.628721 -0.531582 0.567565
vn 0.628721 -0.531582 0.567565
vn 0.628721 -0.531582 0.567565
vn 0.914042 0.285078 0.288546
vn 0.914042 0.285078 0.288546
vn 0.914042 0.285078 0.288546
vn 0.914042 0.285078 0.288546
vn -0.891826 0.297631 0.340679
vn -0.891826 0.297631 0.340679
vn -0.891826 0.297631 0.340679
vn -0.891826 0.297631 0.340679
vn 0.891826 0.297632 0.340679
vn 0.891826 0.297632 0.340679
vn 0.891826 0.297632 0.340679
vn 0.891826 0.297632 0.340679
vn -0.357008 0.768877 0.530446
vn -0.357008 0.768877 0.530446
vn -0.357007 0.768877 0.530446
vn -0.357008 0.768877 0.530446
vn -0.576508 -0.484393 0.658029
vn -0.576508 -0.484393 0.658029
vn -0.576508 -0.484393 0.658029
vn -0.576508 -0.484393 0.658029
vn 0.357007 0.768877 0.530447
vn 0.357007 0.768877 0.530447
vn 0.357007 0.768877 0.530447
vn 0.357007 0.768877 0.530447
vn 0.576508 -0.484393 0.658029
vn 0.576508 -0.484393 0.658029
vn 0.576508 -0.484393 0.658029
vn 0.576508 -0.484393 0.658029
s 1
g pCube1
usemtl initialShadingGroup
f 1/1/1 22/34/2 23/36/3 3/3/4
s 2
f 5/5/5 20/32/6 21/33/7 7/7/8
s 3
f 7/7/9 21/33/10 22/35/11 1/9/12
s 4
f 2/2/13 8/11/14 6/12/15 4/4/16
s 5
f 7/13/17 1/1/18 3/3/19 5/14/20
s 6
f 25/38/21 26/39/22 27/40/23 28/41/24
s 4
f 4/4/16 6/6/15 11/17/25 10/16/26
s 2
f 20/32/6 5/5/5 12/18/27 19/31/28
s 5
f 5/5/20 3/3/19 9/15/29 12/18/30
s 7
f 103/112/31 104/113/32 105/98/33 106/114/34
s 8
f 10/16/35 11/17/36 94/102/37 95/103/38
s 9
f 19/31/39 12/18/40 92/100/41 93/101/42
s 10
f 12/18/43 9/15/44 91/99/45 92/100/46
s 9
f 11/17/47 19/31/39 93/101/42 94/102/48
s 2
f 6/6/49 20/32/6 19/31/28 11/17/50
f 21/33/7 20/32/6 6/6/49 8/8/51
s 3
f 22/35/11 21/33/10 8/8/52 2/10/53
s 1
f 23/36/3 22/34/2 2/2/54 4/4/55
s 6
f 27/40/23 26/39/22 29/42/56 30/43/57
s 7
f 107/116/58 105/98/33 104/113/32 108/115/59
s 11
f 3/3/60 23/36/61 26/39/62 25/38/63
s 12
f 24/37/64 9/15/65 28/41/66 27/40/67
s off
f 9/15/68 3/3/69 25/38/70 28/41/71
s 11
f 23/36/61 4/4/72 29/42/73 26/39/62
s off
f 4/4/74 10/16/75 30/43/76 29/42/77
s 12
f 10/16/78 24/37/64 27/40/67 30/43/79
s off
f 13/19/80 17/27/81 36/45/82 35/44/83
f 14/20/84 15/21/85 38/47/86 37/46/87
f 18/30/88 16/22/89 41/49/90 42/48/91
f 16/22/92 13/19/93 35/44/94 41/49/95
f 17/27/96 14/20/97 37/46/98 36/45/99
f 15/21/100 18/30/101 42/48/102 38/47/103
s 13
f 31/23/104 32/28/105 44/51/106 43/50/107
s 14
f 33/29/108 34/26/109 46/53/110 45/52/111
s 15
f 34/26/112 31/23/113 43/50/114 46/53/115
s 13
f 32/28/105 40/24/116 47/54/117 44/51/118
s 17
f 40/24/119 39/25/120 48/55/121 47/54/122
s 14
f 39/25/123 33/29/108 45/52/124 48/55/125
s 19
f 43/50/126 44/51/127 50/57/128 49/56/129
s 20
f 45/52/130 46/53/131 52/59/132 51/58/133
s 21
f 46/53/134 43/50/135 49/56/136 52/59/137
s 22
f 44/51/138 47/54/139 53/60/140 50/57/141
s 23
f 47/54/142 48/55/143 54/61/144 53/60/145
s 24
f 48/55/146 45/52/147 51/58/148 54/61/149
s 19
f 49/56/129 50/57/128 56/63/150 55/62/151
s 20
f 51/58/133 52/59/132 58/65/152 57/64/153
s 21
f 52/59/137 49/56/136 55/62/154 58/65/155
s 22
f 50/57/141 53/60/140 59/66/156 56/63/157
s 23
f 53/60/145 54/61/144 60/67/158 59/66/159
s 24
f 54/61/149 51/58/148 57/64/160 60/67/161
s 25
f 55/62/162 56/63/163 62/69/164 61/68/165
s 26
f 57/64/166 58/65/167 64/71/168 63/70/169
s 27
f 58/65/170 55/62/171 61/68/172 64/71/173
s 25
f 56/63/174 59/66/175 65/72/176 62/69/177
s 29
f 59/66/178 60/67/179 66/73/180 65/72/181
s 26
f 60/67/182 57/64/183 63/70/184 66/73/185
s 25
f 61/68/165 62/69/164 68/75/186 67/74/187
s 26
f 63/70/169 64/71/168 70/77/188 69/76/189
s 27
f 64/71/173 61/68/172 67/74/190 70/77/191
s 25
f 62/69/177 65/72/176 71/78/192 68/75/186
s 29
f 65/72/181 66/73/180 72/79/193 71/78/194
s 26
f 66/73/185 63/70/184 69/76/189 72/79/195
s 25
f 67/74/187 68/75/186 73/80/196
s 26
f 69/76/189 70/77/188 74/81/197
s 27
f 70/77/191 67/74/190 73/80/198 74/81/199
s 25
f 68/75/186 71/78/192 73/80/196
s 29
f 71/78/194 72/79/193 74/81/200 73/80/201
s 26
f 72/79/195 69/76/189 74/81/197
s 15
f 76/83/202 75/82/203 31/23/113 34/26/112
s 14
f 77/84/204 76/83/205 34/26/109 33/29/108
f 78/85/206 77/84/204 33/29/108 39/25/123
s 17
f 79/86/207 78/85/208 39/25/120 40/24/119
s 13
f 80/87/209 79/86/210 40/24/116 32/28/105
f 75/82/211 80/87/209 32/28/105 31/23/104
s off
f 81/88/212 82/89/213 83/90/214
f 84/91/215 81/88/216 83/90/217
f 80/87/218 75/82/219 82/89/220 81/88/221
f 75/82/222 35/44/223 82/89/224
f 35/44/225 36/45/226 83/90/227 82/89/228
f 79/86/229 80/87/230 81/88/231 84/91/232
f 36/45/233 37/46/234 84/91/235 83/90/236
f 37/46/237 79/86/238 84/91/239
f 76/83/240 77/84/241 86/93/242 85/92/243
f 77/84/244 42/48/245 86/93/246
f 42/48/247 41/49/248 85/92/249 86/93/250
f 75/82/251 76/83/252 85/92/253 87/94/254
f 41/49/255 35/44/256 87/94/257 85/92/258
f 35/44/259 75/82/260 87/94/261
f 78/85/262 79/86/263 89/96/264 88/95/265
f 79/86/266 37/46/267 89/96/268
f 37/46/269 38/47/270 88/95/271 89/96/272
f 77/84/273 78/85/274 88/95/275 90/97/276
f 38/47/277 42/48/278 90/97/279 88/95/280
f 42/48/281 77/84/282 90/97/283
s 7
f 106/114/34 105/98/33 109/109/284 110/117/285
s 10
f 92/100/46 91/99/45 13/19/286 16/22/287
s 9
f 93/101/42 92/100/41 16/22/288 18/30/289
f 94/102/48 93/101/42 18/30/289 15/21/290
s 8
f 95/103/38 94/102/37 15/21/291 14/20/292
s 7
f 109/109/284 105/98/33 107/116/58 111/118/293
s off
f 9/15/294 24/37/295 97/105/296 96/104/297
f 91/99/298 9/15/299 96/104/300 98/106/301
f 24/37/302 10/16/303 100/107/304 97/105/305
f 10/16/306 95/103/307 99/108/308 100/107/309
f 113/119/310 112/120/311 110/117/312 109/109/313
f 13/19/314 91/99/315 98/106/316 101/110/317
f 95/103/318 14/20/319 102/111/320 99/108/321
f 114/121/322 113/119/323 109/109/324 111/118/325
f 96/104/326 97/105/327 104/113/328 103/112/329
f 98/106/330 96/104/331 103/112/332 106/114/333
f 97/105/334 100/107/335 108/115/336 104/113/337
f 100/107/338 99/108/339 107/116/340 108/115/341
f 101/110/342 98/106/343 106/114/344 110/117/345
f 99/108/346 102/111/347 111/118/348 107/116/349
f 17/27/350 13/19/351 112/120/352 113/119/353
f 13/19/354 101/110/355 110/117/356 112/120/357
f 14/20/358 17/27/359 113/119/360 114/121/361
f 102/111/362 14/20/363 114/121/364 111/118/365
