# This file uses centimeters as units for non-parametric coordinates.

mtllib Pedestal.mtl
g default
v -0.613663 -0.010531 0.613663
v 0.613663 -0.010531 0.613663
v -0.500000 0.421159 0.500000
v 0.500000 0.421159 0.500000
v -0.500000 0.421159 -0.500000
v 0.500000 0.421159 -0.500000
v -0.613663 -0.010531 -0.613663
v 0.613663 -0.010531 -0.613663
v -0.434171 0.431039 0.434171
v 0.434171 0.431039 0.434171
v 0.434171 0.431039 -0.434171
v -0.434171 0.431039 -0.434171
v -0.439305 0.652020 0.439305
v 0.439305 0.652020 0.439305
v 0.439305 0.652020 -0.439305
v -0.439305 0.652020 -0.439305
v -0.500000 0.688915 0.500000
v 0.500000 0.688915 0.500000
v 0.500000 0.688915 -0.500000
v -0.500000 0.688915 -0.500000
v -0.500000 0.897384 0.500000
v 0.500000 0.897384 0.500000
v 0.500000 0.897384 -0.500000
v -0.500000 0.897384 -0.500000
v -0.467552 0.917712 0.467552
v 0.467552 0.917712 0.467552
v 0.467552 0.917712 -0.467552
v -0.467552 0.917712 -0.467552
v -0.467552 1.078410 0.467552
v 0.467552 1.078410 0.467552
v 0.467552 1.078410 -0.467552
v -0.467552 1.078410 -0.467552
v -0.504405 1.097575 0.504405
v 0.504405 1.097575 0.504405
v 0.504405 1.097575 -0.504405
v -0.504405 1.097575 -0.504405
v -0.577272 1.368313 0.577272
v 0.577272 1.368313 0.577272
v 0.577272 1.368313 -0.577272
v -0.577272 1.368313 -0.577272
vt 0.375000 0.000000
vt 0.625000 0.000000
vt 0.375000 0.250000
vt 0.625000 0.250000
vt 0.375000 0.500000
vt 0.625000 0.500000
vt 0.375000 0.750000
vt 0.625000 0.750000
vt 0.375000 1.000000
vt 0.625000 1.000000
vt 0.875000 0.000000
vt 0.875000 0.250000
vt 0.125000 0.000000
vt 0.125000 0.250000
vt 0.375000 0.250000
vt 0.625000 0.250000
vt 0.625000 0.500000
vt 0.375000 0.500000
vt 0.375000 0.250000
vt 0.625000 0.250000
vt 0.625000 0.500000
vt 0.375000 0.500000
vt 0.375000 0.250000
vt 0.625000 0.250000
vt 0.625000 0.500000
vt 0.375000 0.500000
vt 0.375000 0.250000
vt 0.625000 0.250000
vt 0.625000 0.500000
vt 0.375000 0.500000
vt 0.375000 0.250000
vt 0.625000 0.250000
vt 0.625000 0.500000
vt 0.375000 0.500000
vt 0.375000 0.250000
vt 0.625000 0.250000
vt 0.625000 0.500000
vt 0.375000 0.500000
vt 0.375000 0.250000
vt 0.625000 0.250000
vt 0.625000 0.500000
vt 0.375000 0.500000
vt 0.375000 0.250000
vt 0.625000 0.250000
vt 0.625000 0.500000
vt 0.375000 0.500000
vn 0.000000 0.254619 0.967042
vn 0.000000 0.254619 0.967042
vn 0.000000 0.301527 0.953458
vn 0.000000 0.301527 0.953458
vn 0.000000 1.000000 0.000000
vn 0.000000 1.000000 0.000000
vn 0.000000 1.000000 0.000000
vn 0.000000 1.000000 0.000000
vn 0.000000 0.301527 -0.953458
vn 0.000000 0.301527 -0.953458
vn 0.000000 0.254619 -0.967042
vn 0.000000 0.254619 -0.967042
vn 0.000000 -1.000000 0.000000
vn 0.000000 -1.000000 0.000000
vn 0.000000 -1.000000 0.000000
vn 0.000000 -1.000000 0.000000
vn 0.967042 0.254619 0.000000
vn 0.967042 0.254619 0.000000
vn 0.953458 0.301527 0.000000
vn 0.953458 0.301527 0.000000
vn -0.967042 0.254619 0.000000
vn -0.967042 0.254619 0.000000
vn -0.953458 0.301527 0.000000
vn -0.953458 0.301527 0.000000
vn 0.000000 0.385011 0.922912
vn 0.000000 0.385011 0.922912
vn 0.922912 0.385011 0.000000
vn 0.922912 0.385011 0.000000
vn 0.000000 0.385011 -0.922912
vn 0.000000 0.385011 -0.922912
vn -0.922912 0.385011 0.000000
vn -0.922912 0.385011 0.000000
vn 0.000000 -0.340590 0.940212
vn 0.000000 -0.340590 0.940212
vn 0.940212 -0.340590 0.000000
vn 0.940212 -0.340590 0.000000
vn 0.000000 -0.340590 -0.940212
vn 0.000000 -0.340590 -0.940212
vn -0.940212 -0.340590 0.000000
vn -0.940212 -0.340590 0.000000
vn 0.000000 -0.136486 0.990642
vn 0.000000 -0.136486 0.990642
vn 0.990642 -0.136486 0.000000
vn 0.990642 -0.136486 0.000000
vn 0.000000 -0.136486 -0.990642
vn 0.000000 -0.136486 -0.990642
vn -0.990642 -0.136486 0.000000
vn -0.990642 -0.136486 0.000000
vn 0.000000 0.078831 0.996888
vn 0.000000 0.078831 0.996888
vn 0.996888 0.078831 0.000000
vn 0.996888 0.078831 0.000000
vn 0.000000 0.078831 -0.996888
vn 0.000000 0.078831 -0.996888
vn -0.996888 0.078831 0.000000
vn -0.996888 0.078831 0.000000
vn 0.000000 0.847437 0.530896
vn 0.000000 0.847437 0.530896
vn 0.530896 0.847437 0.000000
vn 0.530896 0.847437 0.000000
vn 0.000000 0.847437 -0.530896
vn 0.000000 0.847437 -0.530896
vn -0.530896 0.847437 0.000000
vn -0.530896 0.847437 0.000000
vn 0.000000 0.000000 1.000000
vn 0.000000 0.000000 1.000000
vn 0.000000 -0.282973 0.959128
vn 0.000000 -0.282973 0.959128
vn 1.000000 0.000000 0.000000
vn 1.000000 0.000000 0.000000
vn 0.959128 -0.282973 0.000000
vn 0.959128 -0.282973 0.000000
vn 0.000000 0.000000 -1.000000
vn 0.000000 0.000000 -1.000000
vn 0.000000 -0.282973 -0.959128
vn 0.000000 -0.282973 -0.959128
vn -1.000000 0.000000 0.000000
vn -1.000000 0.000000 0.000000
vn -0.959128 -0.282973 0.000000
vn -0.959128 -0.282973 0.000000
vn 0.000000 -0.887208 0.461369
vn 0.000000 -0.887208 0.461369
vn 0.461369 -0.887209 0.000000
vn 0.461369 -0.887209 0.000000
vn 0.000000 -0.887208 -0.461369
vn 0.000000 -0.887208 -0.461369
vn -0.461369 -0.887209 0.000000
vn -0.461369 -0.887209 0.000000
vn 0.000000 -0.259891 0.965638
vn 0.000000 -0.259891 0.965638
vn 0.000000 -0.259891 0.965638
vn 0.000000 -0.259891 0.965638
vn 0.965638 -0.259891 0.000000
vn 0.965638 -0.259891 0.000000
vn 0.965638 -0.259891 0.000000
vn 0.965638 -0.259891 0.000000
vn 0.000000 -0.259891 -0.965638
vn 0.000000 -0.259891 -0.965638
vn 0.000000 -0.259891 -0.965638
vn 0.000000 -0.259891 -0.965638
vn -0.965638 -0.259891 0.000000
vn -0.965638 -0.259891 0.000000
vn -0.965638 -0.259891 0.000000
vn -0.965638 -0.259891 0.000000
s 1
g Pedestal
usemtl initialShadingGroup
f 1/1/1 2/2/2 4/4/3 3/3/4
s off
f 37/43/5 38/44/6 39/45/7 40/46/8
s 2
f 5/5/9 6/6/10 8/8/11 7/7/12
s off
f 7/7/13 8/8/14 2/10/15 1/9/16
s 3
f 2/2/17 8/11/18 6/12/19 4/4/20
s 4
f 7/13/21 1/1/22 3/3/23 5/14/24
s 1
f 3/3/4 4/4/3 10/16/25 9/15/26
s 3
f 4/4/20 6/6/19 11/17/27 10/16/28
s 2
f 6/6/10 5/5/9 12/18/29 11/17/30
s 4
f 5/5/24 3/3/23 9/15/31 12/18/32
s 1
f 9/15/26 10/16/25 14/20/33 13/19/34
s 3
f 10/16/28 11/17/27 15/21/35 14/20/36
s 2
f 11/17/30 12/18/29 16/22/37 15/21/38
s 4
f 12/18/32 9/15/31 13/19/39 16/22/40
s 1
f 13/19/34 14/20/33 18/24/41 17/23/42
s 3
f 14/20/36 15/21/35 19/25/43 18/24/44
s 2
f 15/21/38 16/22/37 20/26/45 19/25/46
s 4
f 16/22/40 13/19/39 17/23/47 20/26/48
s 1
f 17/23/42 18/24/41 22/28/49 21/27/50
s 3
f 18/24/44 19/25/43 23/29/51 22/28/52
s 2
f 19/25/46 20/26/45 24/30/53 23/29/54
s 4
f 20/26/48 17/23/47 21/27/55 24/30/56
s 1
f 21/27/50 22/28/49 26/32/57 25/31/58
s 3
f 22/28/52 23/29/51 27/33/59 26/32/60
s 2
f 23/29/54 24/30/53 28/34/61 27/33/62
s 4
f 24/30/56 21/27/55 25/31/63 28/34/64
s 5
f 25/31/65 26/32/66 30/36/67 29/35/68
s 6
f 26/32/69 27/33/70 31/37/71 30/36/72
s 7
f 27/33/73 28/34/74 32/38/75 31/37/76
s 8
f 28/34/77 25/31/78 29/35/79 32/38/80
s 5
f 29/35/68 30/36/67 34/40/81 33/39/82
s 6
f 30/36/72 31/37/71 35/41/83 34/40/84
s 7
f 31/37/76 32/38/75 36/42/85 35/41/86
s 8
f 32/38/80 29/35/79 33/39/87 36/42/88
s off
f 33/39/89 34/40/90 38/44/91 37/43/92
f 34/40/93 35/41/94 39/45/95 38/44/96
f 35/41/97 36/42/98 40/46/99 39/45/100
f 36/42/101 33/39/102 37/43/103 40/46/104
