# Blender v2.77 (sub 0) OBJ File: 'Rat.blend'
# www.blender.org
mtllib Rat.mtl
o Cube
v 0.187418 0.507013 2.500000
v -0.200429 0.507013 2.500000
v -0.243140 0.357073 1.500000
v 0.230129 0.357073 1.500000
v 0.355977 1.207132 2.215224
v -0.368989 1.207132 2.215223
v -0.322454 1.328699 1.523699
v 0.309443 1.328699 1.523699
v 0.062125 0.785167 3.238584
v -0.075137 0.785167 3.238584
v 0.062111 0.928979 3.238584
v -0.075122 0.928979 3.238584
v -0.620477 0.005363 0.593160
v 0.607467 0.005363 0.593161
v -0.391255 2.076057 0.593160
v 0.378244 2.076057 0.593161
v -0.658469 0.801053 -0.302662
v 0.645459 0.801053 -0.302662
v -0.658469 2.209679 -0.302662
v 0.645458 2.209679 -0.302662
v -0.665939 0.801053 -0.970302
v 0.652929 0.801053 -0.970302
v -0.665939 2.209679 -0.970302
v 0.652929 2.209679 -0.970302
v -0.654624 -0.004682 -1.456097
v 0.641613 -0.004682 -1.456097
v -0.661393 2.034006 -1.456097
v 0.648382 2.034006 -1.456097
v -0.651567 0.482713 -1.892159
v 0.638557 0.482713 -1.892159
v -0.649408 1.546611 -1.892159
v 0.636397 1.546611 -1.892159
v -0.275764 0.885412 -2.109459
v 0.262753 0.885412 -2.109459
v -0.274400 1.277860 -2.109459
v 0.261390 1.277860 -2.109459
v -0.688391 0.537822 -2.934460
v -0.203781 0.537822 -2.810419
v -0.689138 0.930269 -2.934460
v -0.204001 0.930269 -2.810419
v 0.341173 1.041092 -4.018349
v 0.574154 1.041092 -4.115798
v 0.340213 1.264673 -4.018349
v 0.572743 1.264673 -4.115798
v -0.395438 0.708964 -5.529730
v -0.345885 0.708964 -5.529730
v -0.395469 0.759126 -5.529730
v -0.345913 0.759126 -5.529730
v -0.006505 0.357073 2.500000
v -0.006505 0.357073 1.500000
v -0.006506 1.422355 2.418188
v -0.006505 1.357073 1.680967
v -0.006506 0.785167 3.238584
v -0.006506 0.928979 3.238584
v -0.006505 0.226150 0.593161
v -0.006505 2.394173 0.593160
v -0.006505 0.801053 -0.302662
v -0.006505 2.527795 -0.302662
v -0.006505 0.801053 -0.970302
v -0.006505 2.527795 -0.970302
v -0.006505 0.216104 -1.456097
v -0.006505 2.352122 -1.456097
v -0.006505 0.482713 -1.892159
v -0.006505 1.546611 -1.892159
v -0.006505 0.885412 -2.109459
v -0.006505 1.277860 -2.109459
v -0.447230 0.537822 -2.872439
v -0.447717 0.930269 -2.872439
v 0.458360 1.041092 -4.067073
v 0.457086 1.264673 -4.067073
v -0.370663 0.708964 -5.529730
v -0.370692 0.759126 -5.529730
v 0.403530 0.857073 2.447399
v -0.416541 0.857073 2.447399
v -0.325530 0.857073 1.500000
v 0.312519 0.857073 1.500000
v 0.062123 0.857073 3.238584
v -0.075134 0.857073 3.238584
v -0.628192 1.040710 0.593160
v 0.615181 1.040710 0.593161
v -1.069764 1.505366 -0.302662
v 1.056754 1.505366 -0.302662
v -1.215184 1.505366 -0.970302
v 1.202173 1.505366 -0.970302
v -1.070860 1.081636 -1.456097
v 1.057850 1.081636 -1.456097
v -0.650880 1.081636 -1.892159
v 0.637869 1.081636 -1.892159
v -0.275318 1.081636 -2.109459
v 0.262307 1.081636 -2.109459
v -0.689312 0.734045 -2.934460
v -0.204052 0.734045 -2.810419
v 0.340768 1.152882 -4.018349
v 0.573489 1.152882 -4.115798
v -0.395456 0.734045 -5.529730
v -0.345901 0.734045 -5.529730
v -0.370680 0.734045 -5.529730
v -0.006506 0.857073 3.238584
v 0.298923 0.432043 2.000000
v -0.311934 0.432043 2.000000
v 0.466030 1.282102 1.834950
v -0.479041 1.282102 1.834949
v -0.006506 1.357073 1.834950
v -0.006505 0.357073 2.000000
v 0.426740 0.857073 2.052601
v -0.439751 0.857073 2.052600
v 0.558853 1.426464 1.840521
v 0.681895 1.461259 1.686538
v 0.171686 1.679201 1.686538
v 0.168944 1.679201 1.840521
v -0.556015 1.473560 1.841774
v -0.679562 1.506237 1.687792
v -0.175017 1.733614 1.687792
v -0.172420 1.733614 1.841774
vn -0.1367 -0.9885 0.0647
vn 0.9139 0.4060 -0.0077
vn 0.4510 -0.7897 0.4158
vn -0.9475 -0.1037 -0.3026
vn 0.4592 0.6577 0.5971
vn 0.9655 -0.2107 -0.1529
vn 0.0000 0.0000 1.0000
vn -0.5525 0.7339 0.3952
vn -0.8554 -0.3966 0.3331
vn 0.8866 0.2957 0.3557
vn 0.9678 -0.2331 0.0951
vn 0.9333 -0.0548 0.3550
vn 0.2461 -0.9481 0.2011
vn -0.9523 0.1475 0.2672
vn 0.4365 0.8997 0.0024
vn 0.1370 -0.7854 -0.6037
vn 0.5124 0.8349 0.2010
vn -0.8424 0.3139 0.4381
vn 0.7998 -0.4312 0.4176
vn -0.8225 0.5609 0.0942
vn 0.8225 -0.5609 0.0942
vn 0.0000 -1.0000 -0.0000
vn 0.1281 -0.7505 -0.6484
vn 0.0962 -0.5695 0.8163
vn 0.4141 0.8554 -0.3113
vn -0.7918 0.4582 -0.4040
vn 0.0000 0.6287 -0.7776
vn 0.1356 0.5532 -0.8219
vn -0.8121 0.2355 -0.5338
vn 0.8308 -0.2049 -0.5175
vn 0.8322 0.0015 -0.5545
vn -0.5006 0.0018 -0.8657
vn 0.5010 0.0007 -0.8655
vn 0.0000 -0.4749 -0.8800
vn -0.0093 0.9675 0.2526
vn -0.0515 -0.9044 0.4236
vn 0.0553 0.8882 -0.4560
vn -0.8940 0.0025 0.4480
vn -0.8986 -0.0037 0.4387
vn -0.7248 -0.0009 -0.6889
vn 0.8587 0.0026 0.5125
vn 0.0146 -0.9192 -0.3936
vn 0.0000 0.0000 -1.0000
vn 0.8378 0.0042 -0.5460
vn 0.0637 -0.9806 0.1855
vn -0.0963 0.9559 -0.2775
vn -0.0947 0.9566 -0.2754
vn 0.0648 -0.9802 0.1870
vn 0.0135 -0.9307 -0.3656
vn 0.0516 0.9043 -0.4237
vn -0.0552 -0.8883 0.4560
vn -0.0102 0.9618 0.2737
vn -0.1356 0.5532 -0.8219
vn -0.4141 0.8554 -0.3113
vn -0.0962 -0.5695 0.8163
vn -0.1281 -0.7505 -0.6484
vn -0.5124 0.8349 0.2010
vn -0.1370 -0.7854 -0.6037
vn -0.4365 0.8997 0.0024
vn -0.2461 -0.9481 0.2011
vn 0.5525 0.7339 0.3952
vn -0.4592 0.6577 0.5971
vn -0.4510 -0.7897 0.4158
vn -0.0536 0.4033 -0.9135
vn 0.1367 -0.9885 0.0647
vn 0.8378 0.0046 -0.5460
vn 0.8590 0.0019 0.5120
vn -0.7243 -0.0031 -0.6895
vn -0.8987 -0.0028 0.4386
vn -0.8939 -0.0011 0.4483
vn 0.5006 0.0018 -0.8657
vn -0.5010 0.0007 -0.8655
vn 0.8324 0.0018 -0.5542
vn 0.8121 0.2355 -0.5338
vn -0.8308 -0.2049 -0.5175
vn -0.7998 -0.4312 0.4176
vn 0.8225 0.5609 0.0942
vn -0.8225 -0.5609 0.0942
vn 0.7918 0.4582 -0.4040
vn -0.9678 -0.2331 0.0951
vn -0.9333 -0.0548 0.3550
vn 0.9523 0.1475 0.2672
vn 0.8424 0.3139 0.4381
vn 0.8554 -0.3966 0.3331
vn -0.8866 0.2957 0.3557
vn 0.9475 -0.1037 -0.3026
vn -0.9655 -0.2107 -0.1529
vn -0.9009 -0.3997 0.1691
vn 0.9772 0.1143 0.1791
vn 0.4080 -0.9059 0.1134
vn 0.3383 0.9398 0.0481
vn 0.9009 -0.3997 0.1691
vn -0.9772 0.1143 0.1791
vn -0.3383 0.9398 0.0481
vn -0.4080 -0.9059 0.1134
vn 0.4451 0.8512 0.2780
vn 0.5507 -0.8145 -0.1822
vn -0.8765 0.4813 -0.0078
vn -0.0074 -0.0196 0.9998
vn -0.4621 0.8419 0.2786
vn 0.0688 0.3531 -0.9331
vn -0.6763 -0.7167 -0.1702
vn 0.0081 -0.0206 0.9998
usemtl Material
s off
f 104//1 100//1 3//1 50//1
f 103//2 52//2 113//2 114//2
f 49//3 1//3 9//3 53//3
f 106//4 102//4 7//4 75//4
f 52//5 8//5 16//5 56//5
f 105//6 99//6 4//6 76//6
f 98//7 54//7 12//7 78//7
f 51//8 6//8 12//8 54//8
f 74//9 2//9 10//9 78//9
f 73//10 5//10 11//10 77//10
f 80//11 14//11 18//11 82//11
f 76//12 4//12 14//12 80//12
f 50//13 3//13 13//13 55//13
f 75//14 7//14 15//14 79//14
f 58//15 20//15 24//15 60//15
f 55//16 13//16 17//16 57//16
f 56//17 16//17 20//17 58//17
f 79//18 15//18 19//18 81//18
f 84//19 22//19 26//19 86//19
f 81//20 19//20 23//20 83//20
f 82//21 18//21 22//21 84//21
f 57//22 17//22 21//22 59//22
f 61//23 25//23 29//23 63//23
f 59//24 21//24 25//24 61//24
f 60//25 24//25 28//25 62//25
f 83//26 23//26 27//26 85//26
f 64//27 32//27 36//27 66//27
f 62//28 28//28 32//28 64//28
f 85//29 27//29 31//29 87//29
f 86//30 26//30 30//30 88//30
f 90//31 34//31 38//31 92//31
f 87//32 31//32 35//32 89//32
f 88//33 30//33 34//33 90//33
f 63//34 29//34 33//34 65//34
f 68//35 40//35 44//35 70//35
f 65//36 33//36 37//36 67//36
f 66//37 36//37 40//37 68//37
f 89//38 35//38 39//38 91//38
f 93//39 43//39 47//39 95//39
f 91//40 39//40 43//40 93//40
f 92//41 38//41 42//41 94//41
f 67//42 37//42 41//42 69//42
f 97//43 72//43 48//43 96//43
f 94//44 42//44 46//44 96//44
f 69//45 41//45 45//45 71//45
f 70//46 44//46 48//46 72//46
f 43//47 70//47 72//47 47//47
f 42//48 69//48 71//48 46//48
f 95//43 47//43 72//43 97//43
f 38//49 67//49 69//49 42//49
f 35//50 66//50 68//50 39//50
f 34//51 65//51 67//51 38//51
f 39//52 68//52 70//52 43//52
f 30//34 63//34 65//34 34//34
f 27//53 62//53 64//53 31//53
f 31//27 64//27 66//27 35//27
f 23//54 60//54 62//54 27//54
f 22//55 59//55 61//55 26//55
f 26//56 61//56 63//56 30//56
f 18//22 57//22 59//22 22//22
f 15//57 56//57 58//57 19//57
f 14//58 55//58 57//58 18//58
f 19//59 58//59 60//59 23//59
f 4//60 50//60 55//60 14//60
f 5//61 51//61 54//61 11//61
f 77//7 11//7 54//7 98//7
f 7//62 52//62 56//62 15//62
f 2//63 49//63 53//63 10//63
f 8//64 52//64 109//64 108//64
f 99//65 104//65 50//65 4//65
f 9//7 77//7 98//7 53//7
f 45//43 95//43 97//43 71//43
f 44//66 94//66 96//66 48//66
f 71//43 97//43 96//43 46//43
f 40//67 92//67 94//67 44//67
f 37//68 91//68 93//68 41//68
f 41//69 93//69 95//69 45//69
f 33//70 89//70 91//70 37//70
f 32//71 88//71 90//71 36//71
f 29//72 87//72 89//72 33//72
f 36//73 90//73 92//73 40//73
f 28//74 86//74 88//74 32//74
f 25//75 85//75 87//75 29//75
f 21//76 83//76 85//76 25//76
f 20//77 82//77 84//77 24//77
f 17//78 81//78 83//78 21//78
f 24//79 84//79 86//79 28//79
f 13//80 79//80 81//80 17//80
f 3//81 75//81 79//81 13//81
f 8//82 76//82 80//82 16//82
f 16//83 80//83 82//83 20//83
f 1//84 73//84 77//84 9//84
f 6//85 74//85 78//85 12//85
f 53//7 98//7 78//7 10//7
f 101//86 105//86 76//86 8//86
f 100//87 106//87 75//87 3//87
f 2//88 74//88 106//88 100//88
f 5//89 73//89 105//89 101//89
f 1//90 49//90 104//90 99//90
f 5//91 101//91 103//91 51//91
f 73//92 1//92 99//92 105//92
f 74//93 6//93 102//93 106//93
f 51//94 103//94 102//94 6//94
f 49//95 2//95 100//95 104//95
f 107//96 108//96 109//96 110//96
f 101//97 8//97 108//97 107//97
f 52//98 103//98 110//98 109//98
f 103//99 101//99 107//99 110//99
f 114//100 113//100 112//100 111//100
f 52//101 7//101 112//101 113//101
f 7//102 102//102 111//102 112//102
f 102//103 103//103 114//103 111//103
