# This file uses centimeters as units for non-parametric coordinates.

mtllib Tomato.mtl
g default
v 0.270598 -0.000373 -0.270598
v 0.000000 -0.000373 -0.382683
v -0.270598 -0.000373 -0.270598
v -0.382683 -0.000373 0.000000
v -0.270598 -0.000373 0.270598
v 0.000000 -0.000373 0.382683
v 0.270598 -0.000373 0.270598
v 0.382683 -0.000373 0.000000
v 0.500000 0.055623 -0.500000
v 0.000000 0.055623 -0.707107
v -0.500000 0.055623 -0.500000
v -0.707107 0.055623 0.000000
v -0.500000 0.055623 0.500000
v 0.000000 0.055623 0.707107
v 0.500000 0.055623 0.500000
v 0.707107 0.055623 0.000000
v 0.653281 0.208090 -0.653281
v 0.000000 0.208090 -0.923879
v -0.653281 0.208090 -0.653281
v -0.923879 0.208090 0.000000
v -0.653281 0.208090 0.653281
v 0.000000 0.208090 0.923879
v 0.653281 0.208090 0.653281
v 0.923880 0.208090 0.000000
v 0.707107 0.491397 -0.707107
v 0.000000 0.491397 -1.000000
v -0.707107 0.491397 -0.707107
v -1.000000 0.491397 0.000000
v -0.707107 0.491397 0.707107
v 0.000000 0.491397 1.000000
v 0.707107 0.491397 0.707107
v 1.000000 0.491397 0.000000
v 0.653281 0.774704 -0.653281
v 0.000000 0.774704 -0.923879
v -0.653281 0.774704 -0.653281
v -0.923879 0.774704 0.000000
v -0.653281 0.774704 0.653281
v 0.000000 0.774704 0.923879
v 0.653281 0.774704 0.653281
v 0.923880 0.774704 0.000000
v 0.500000 1.014879 -0.500000
v 0.000000 1.014879 -0.707107
v -0.500000 1.014879 -0.500000
v -0.707107 1.014879 0.000000
v -0.500000 1.014879 0.500000
v 0.000000 1.014879 0.707107
v 0.500000 1.014879 0.500000
v 0.707107 1.014879 0.000000
v 0.270598 1.119000 -0.270598
v 0.000000 1.119000 -0.382683
v -0.270598 1.119000 -0.270598
v -0.382683 1.119000 0.000000
v -0.270598 1.119000 0.270598
v 0.000000 1.119000 0.382683
v 0.270598 1.119000 0.270598
v 0.382683 1.119000 0.000000
v 0.000000 -0.008371 0.000000
v 0.000000 1.071641 0.000000
v 0.118804 1.032403 -0.100931
v 0.000152 1.032403 -0.062379
v 0.000152 1.032403 0.062379
v 0.118804 1.032403 0.100931
v 0.192134 1.032403 0.000000
v 0.114461 1.108923 -0.077702
v -0.008345 1.101220 -0.057117
v -0.027559 1.111421 0.065729
v 0.083373 1.125430 0.121067
v 0.171146 1.123885 0.032422
v 0.115373 1.225603 -0.047989
v 0.041311 1.209873 -0.034110
v 0.029456 1.216168 0.041686
v 0.096192 1.235788 0.074651
v 0.149291 1.241619 0.019228
v 0.058991 1.385448 -0.044870
v 0.019920 1.362846 -0.034574
v 0.012787 1.366638 0.011013
v 0.047450 1.391584 0.028891
v 0.076006 1.403209 -0.005647
v -0.008893 1.485290 -0.048948
v -0.032713 1.471511 -0.042671
v -0.018623 1.483154 -0.027103
v -0.037061 1.473823 -0.014879
v -0.015929 1.489030 -0.003980
v 0.001479 1.496118 -0.025036
v -0.131784 1.101970 -0.137051
v -0.131784 1.101970 0.137051
v -0.131784 1.120053 0.137051
v -0.131784 1.120053 -0.137051
v 0.315386 1.102215 -0.011954
v 0.158635 1.102215 -0.227703
v 0.158635 1.119808 -0.227703
v 0.315386 1.119808 -0.011954
v 0.135908 1.102214 -0.235095
v -0.117743 1.102214 -0.152679
v -0.117743 1.119809 -0.152679
v 0.135908 1.119809 -0.235095
v 0.154259 1.101724 0.233726
v 0.319761 1.101724 0.005931
v 0.319761 1.120299 0.005931
v 0.154259 1.120299 0.233726
v -0.117450 1.102235 0.152774
v 0.135615 1.102235 0.235000
v 0.135615 1.119789 0.235000
v -0.117450 1.119789 0.152774
v -0.011108 1.164401 -0.389487
v -0.125764 1.164401 -0.352233
v -0.125764 1.172354 -0.352233
v -0.011108 1.172354 -0.389487
v -0.337913 1.164312 -0.061580
v -0.337913 1.164312 0.061667
v -0.337913 1.172443 0.061667
v -0.337913 1.172443 -0.061580
v -0.133093 1.163893 0.349939
v -0.003779 1.163893 0.391956
v -0.003779 1.172862 0.391956
v -0.133093 1.172862 0.349939
v 0.326374 1.163752 0.286000
v 0.408801 1.163752 0.172549
v 0.408801 1.173003 0.172549
v 0.326374 1.173003 0.286000
v 0.405432 1.164130 -0.177099
v 0.329743 1.164130 -0.281277
v 0.329743 1.172625 -0.281277
v 0.405432 1.172625 -0.177099
v -0.122769 1.111012 -0.545231
v -0.520057 1.111012 0.001589
v -0.122769 1.111012 0.548410
v 0.520057 1.111012 0.339543
v 0.520057 1.111012 -0.336365
vt 0.125319 0.129296
vt 0.209356 0.125039
vt 0.306743 0.121893
vt 0.407802 0.119035
vt 0.509790 0.116246
vt 0.611777 0.113458
vt 0.712836 0.110600
vt 0.810223 0.107455
vt 0.894260 0.103197
vt 0.076933 0.196586
vt 0.194677 0.195643
vt 0.302069 0.193349
vt 0.405963 0.190717
vt 0.508912 0.188000
vt 0.611860 0.185284
vt 0.715754 0.182652
vt 0.823147 0.180357
vt 0.940890 0.179414
vt 0.052219 0.255344
vt 0.189742 0.255108
vt 0.301140 0.253059
vt 0.406035 0.250496
vt 0.509305 0.247801
vt 0.612574 0.245105
vt 0.717469 0.242542
vt 0.828868 0.240493
vt 0.966391 0.240258
vt 0.043589 0.324562
vt 0.188205 0.324618
vt 0.301280 0.322661
vt 0.406596 0.320122
vt 0.509993 0.317431
vt 0.613391 0.314741
vt 0.718707 0.312202
vt 0.831781 0.310245
vt 0.976397 0.310301
vt 0.052145 0.394517
vt 0.190238 0.394356
vt 0.302296 0.392328
vt 0.407373 0.389765
vt 0.510681 0.387062
vt 0.613990 0.384359
vt 0.719066 0.381796
vt 0.831125 0.379768
vt 0.969218 0.379607
vt 0.079376 0.470341
vt 0.197132 0.469169
vt 0.304447 0.466811
vt 0.408274 0.464144
vt 0.511149 0.461401
vt 0.614025 0.458658
vt 0.717851 0.455992
vt 0.825167 0.453633
vt 0.942923 0.452461
vt 0.126831 0.549523
vt 0.210613 0.545122
vt 0.307636 0.541870
vt 0.408437 0.538944
vt 0.510232 0.536106
vt 0.612026 0.533267
vt 0.712827 0.530341
vt 0.809850 0.527089
vt 0.893632 0.522688
vt 0.166477 0.042776
vt 0.257189 0.039074
vt 0.356412 0.036072
vt 0.457935 0.033249
vt 0.559923 0.030461
vt 0.661446 0.027638
vt 0.760669 0.024636
vt 0.851381 0.020935
vt 0.169590 0.632446
vt 0.259993 0.628619
vt 0.358905 0.625530
vt 0.460202 0.622648
vt 0.561997 0.619810
vt 0.663294 0.616928
vt 0.762206 0.613838
vt 0.852609 0.610012
vt 0.141086 0.947477
vt 0.218267 0.674122
vt 0.412349 0.618671
vt 0.608658 0.691345
vt 0.696667 0.961901
vt 0.782211 0.911675
vt 0.797377 0.911089
vt 0.762053 0.926863
vt 0.811900 0.914088
vt 0.751704 0.918625
vt 0.766836 0.914406
vt 0.773617 0.689382
vt 0.832052 0.683762
vt 0.817285 0.752492
vt 0.772916 0.753791
vt 0.889080 0.703046
vt 0.860849 0.764481
vt 0.933813 0.744035
vt 0.691123 0.776628
vt 0.710535 0.702685
vt 0.731260 0.763120
vt 0.805159 0.842175
vt 0.779623 0.845950
vt 0.830342 0.847978
vt 0.729754 0.858035
vt 0.754743 0.852461
vt 0.295227 0.820470
vt 0.378897 0.804205
vt 0.370512 0.765468
vt 0.281816 0.805265
vt 0.382877 0.822701
vt 0.366731 0.769166
vt 0.339239 0.869706
vt 0.288447 0.807790
vt 0.543382 0.839298
vt 0.500497 0.948076
vt 0.549197 0.955221
vt 0.571480 0.851251
vt 0.505149 0.913474
vt 0.551929 0.949332
vt 0.507011 0.855766
vt 0.568761 0.856883
vt 0.338006 0.963946
vt 0.280788 0.849257
vt 0.297259 0.953213
vt 0.280598 0.855048
vt 0.347102 0.930001
vt 0.297001 0.946867
vt 0.465041 0.786656
vt 0.555936 0.827410
vt 0.471732 0.776796
vt 0.550396 0.827066
vt 0.449474 0.815715
vt 0.475504 0.780560
vt 0.470974 0.769742
vt 0.373396 0.776291
vt 0.466139 0.772066
vt 0.378410 0.777254
vt 0.201898 0.891755
vt 0.218426 0.940737
vt 0.203750 0.894036
vt 0.218171 0.937674
vt 0.295420 0.703058
vt 0.256933 0.741732
vt 0.294184 0.705741
vt 0.259595 0.740211
vt 0.440063 0.694445
vt 0.382705 0.696146
vt 0.436928 0.695704
vt 0.385799 0.697241
vt 0.573076 0.762290
vt 0.529285 0.725148
vt 0.569965 0.760704
vt 0.530704 0.728167
vt 0.616511 0.955229
vt 0.638267 0.901445
vt 0.616931 0.952019
vt 0.636121 0.903726
vt 0.814738 0.926944
vt 0.802295 0.923044
vt 0.789819 0.922097
vt 0.776070 0.923643
vt 0.826095 0.920137
vt 0.851969 0.861902
vt 0.895940 0.789218
vt 0.646910 0.727407
vn 0.099638 -0.990023 -0.099638
vn 0.000000 -0.990023 -0.140909
vn 0.000000 -0.894837 -0.446392
vn 0.315647 -0.894837 -0.315647
vn -0.099638 -0.990023 -0.099638
vn -0.315647 -0.894837 -0.315647
vn -0.140909 -0.990023 0.000000
vn -0.446392 -0.894837 0.000000
vn -0.099638 -0.990023 0.099638
vn -0.315647 -0.894837 0.315647
vn -0.000000 -0.990023 0.140909
vn -0.000000 -0.894837 0.446392
vn 0.099638 -0.990023 0.099638
vn 0.315647 -0.894837 0.315647
vn 0.140909 -0.990023 -0.000000
vn 0.446393 -0.894837 -0.000000
vn 0.000000 -0.490334 -0.871535
vn 0.616268 -0.490334 -0.616268
vn -0.616268 -0.490334 -0.616268
vn -0.871535 -0.490334 0.000000
vn -0.616268 -0.490334 0.616268
vn -0.000000 -0.490334 0.871535
vn 0.616268 -0.490334 0.616268
vn 0.871535 -0.490334 -0.000000
vn 0.000000 0.000000 -1.000000
vn 0.707107 0.000000 -0.707107
vn -0.707107 0.000000 -0.707107
vn -1.000000 0.000000 0.000000
vn -0.707107 0.000000 0.707107
vn -0.000000 0.000000 1.000000
vn 0.707107 -0.000000 0.707107
vn 1.000000 0.000000 -0.000000
vn 0.000000 0.445316 -0.895373
vn 0.633125 0.445316 -0.633125
vn -0.633125 0.445316 -0.633125
vn -0.895373 0.445316 -0.000000
vn -0.633125 0.445316 0.633125
vn -0.000000 0.445316 0.895373
vn 0.633125 0.445316 0.633125
vn 0.895373 0.445316 -0.000000
vn 0.000000 0.782157 -0.623082
vn 0.440586 0.782157 -0.440586
vn -0.440585 0.782157 -0.440585
vn -0.623082 0.782157 -0.000000
vn -0.440586 0.782157 0.440585
vn -0.000000 0.782157 0.623082
vn 0.440586 0.782157 0.440586
vn 0.623082 0.782157 -0.000000
vn 0.000000 0.974232 -0.225547
vn 0.159486 0.974232 -0.159486
vn -0.159486 0.974232 -0.159486
vn -0.225547 0.974232 0.000000
vn -0.159486 0.974232 0.159486
vn 0.000000 0.974232 0.225547
vn 0.159486 0.974232 0.159486
vn 0.225547 0.974232 0.000000
vn 0.000000 -1.000000 0.000000
vn 0.000000 1.000000 0.000000
vn 0.315849 0.228654 -0.920846
vn -0.669507 -0.326984 -0.666964
vn -0.524598 0.837715 -0.151761
vn -0.848336 -0.231914 0.475965
vn 0.027239 0.382087 0.923725
vn 0.744127 0.665239 0.061094
vn 0.058572 0.982886 -0.174656
vn -0.105746 0.990104 -0.092263
vn -0.663534 0.220638 -0.714872
vn 0.492900 0.196638 -0.847575
vn -0.160763 0.984645 0.068034
vn -0.843325 0.316064 0.434634
vn 0.015530 0.968226 0.249593
vn 0.217430 0.342873 0.913872
vn 0.254189 0.966567 0.033719
vn 0.944596 0.304541 0.122449
vn -0.673301 -0.176965 -0.717878
vn 0.448900 0.193826 -0.872307
vn -0.863512 -0.075934 0.498579
vn 0.167898 0.343037 0.924195
vn 0.866569 0.489954 0.094893
vn -0.765324 -0.244417 0.595432
vn 0.245764 0.956198 0.159011
vn 0.376559 0.107893 0.920088
vn 0.242525 0.955369 -0.168678
vn -0.757303 -0.038883 -0.651905
vn 0.369146 0.086495 -0.925338
vn 0.337277 0.240227 -0.910239
vn -0.335835 0.941917 0.002487
vn -0.908041 0.022983 -0.418251
vn -0.056382 0.953307 0.296694
vn 0.966608 0.210924 -0.145532
vn 0.366010 -0.203756 0.908031
vn -0.079658 0.953731 0.289916
vn -0.764717 -0.092426 0.637703
vn 0.245801 0.955155 0.165108
vn 0.999707 0.010811 -0.021684
vn -0.108569 0.936139 -0.334450
vn 0.034241 0.237883 -0.970690
vn -0.312119 0.949388 0.035289
vn -0.296556 -0.244024 0.923313
vn -0.775119 -0.301434 0.555273
vn 0.255828 0.948717 -0.185711
vn 0.939232 0.304842 -0.157845
vn -0.098185 0.954426 -0.281835
vn -0.779329 -0.140175 -0.610735
vn 0.000203 0.986849 0.161644
vn -0.999623 0.000000 0.027461
vn 0.091748 0.987024 0.131783
vn 0.744670 0.000000 -0.667432
vn 0.143888 0.988402 0.048554
vn -0.337064 0.000000 0.941482
vn 0.144546 0.988302 -0.048640
vn -0.340376 0.000000 -0.940289
vn 0.091427 0.987626 -0.127422
vn 0.759594 0.000000 0.650397
vn -0.002470 0.987476 -0.157749
vn -0.998919 0.000000 -0.046493
vn -0.108397 0.984698 -0.136456
vn 0.870067 0.000000 -0.492934
vn -0.163340 0.984831 -0.058551
vn -0.284275 0.000000 0.958743
vn -0.165267 0.984417 0.060080
vn -0.293465 0.000000 -0.955970
vn -0.109480 0.984518 0.136887
vn 0.862760 0.000000 0.505614
vn -0.099088 0.947171 -0.305038
vn -0.321954 0.946756 0.000017
vn -0.098475 0.947827 0.303193
vn 0.255282 0.948912 0.185467
vn 0.255963 0.948638 -0.185928
s 1
g Tomato
usemtl lambert2SG
f 1/1/1 2/2/2 10/11/3 9/10/4
f 2/2/2 3/3/5 11/12/6 10/11/3
f 3/3/5 4/4/7 12/13/8 11/12/6
f 4/4/7 5/5/9 13/14/10 12/13/8
f 5/5/9 6/6/11 14/15/12 13/14/10
f 6/6/11 7/7/13 15/16/14 14/15/12
f 7/7/13 8/8/15 16/17/16 15/16/14
f 8/8/15 1/9/1 9/18/4 16/17/16
f 9/10/4 10/11/3 18/20/17 17/19/18
f 10/11/3 11/12/6 19/21/19 18/20/17
f 11/12/6 12/13/8 20/22/20 19/21/19
f 12/13/8 13/14/10 21/23/21 20/22/20
f 13/14/10 14/15/12 22/24/22 21/23/21
f 14/15/12 15/16/14 23/25/23 22/24/22
f 15/16/14 16/17/16 24/26/24 23/25/23
f 16/17/16 9/18/4 17/27/18 24/26/24
f 17/19/18 18/20/17 26/29/25 25/28/26
f 18/20/17 19/21/19 27/30/27 26/29/25
f 19/21/19 20/22/20 28/31/28 27/30/27
f 20/22/20 21/23/21 29/32/29 28/31/28
f 21/23/21 22/24/22 30/33/30 29/32/29
f 22/24/22 23/25/23 31/34/31 30/33/30
f 23/25/23 24/26/24 32/35/32 31/34/31
f 24/26/24 17/27/18 25/36/26 32/35/32
f 25/28/26 26/29/25 34/38/33 33/37/34
f 26/29/25 27/30/27 35/39/35 34/38/33
f 27/30/27 28/31/28 36/40/36 35/39/35
f 28/31/28 29/32/29 37/41/37 36/40/36
f 29/32/29 30/33/30 38/42/38 37/41/37
f 30/33/30 31/34/31 39/43/39 38/42/38
f 31/34/31 32/35/32 40/44/40 39/43/39
f 32/35/32 25/36/26 33/45/34 40/44/40
f 33/37/34 34/38/33 42/47/41 41/46/42
f 34/38/33 35/39/35 43/48/43 42/47/41
f 35/39/35 36/40/36 44/49/44 43/48/43
f 36/40/36 37/41/37 45/50/45 44/49/44
f 37/41/37 38/42/38 46/51/46 45/50/45
f 38/42/38 39/43/39 47/52/47 46/51/46
f 39/43/39 40/44/40 48/53/48 47/52/47
f 40/44/40 33/45/34 41/54/42 48/53/48
f 41/46/42 42/47/41 50/56/49 49/55/50
f 42/47/41 43/48/43 51/57/51 50/56/49
f 43/48/43 44/49/44 52/58/52 51/57/51
f 44/49/44 45/50/45 53/59/53 52/58/52
f 45/50/45 46/51/46 54/60/54 53/59/53
f 46/51/46 47/52/47 55/61/55 54/60/54
f 47/52/47 48/53/48 56/62/56 55/61/55
f 48/53/48 41/54/42 49/63/50 56/62/56
f 2/2/2 1/1/1 57/64/57
f 3/3/5 2/2/2 57/65/57
f 4/4/7 3/3/5 57/66/57
f 5/5/9 4/4/7 57/67/57
f 6/6/11 5/5/9 57/68/57
f 7/7/13 6/6/11 57/69/57
f 8/8/15 7/7/13 57/70/57
f 1/9/1 8/8/15 57/71/57
f 49/55/50 50/56/49 58/72/58
f 50/56/49 51/57/51 58/73/58
f 51/57/51 52/58/52 58/74/58
f 52/58/52 53/59/53 58/75/58
f 53/59/53 54/60/54 58/76/58
f 54/60/54 55/61/55 58/77/58
f 55/61/55 56/62/56 58/78/58
f 56/62/56 49/63/50 58/79/58
s 2
f 79/85/59 80/86/60 81/160/61
f 80/86/60 82/88/62 81/159/61
f 82/88/62 83/162/63 81/158/61
f 83/89/63 84/90/64 81/87/61
f 84/90/64 79/85/59 81/161/61
f 64/91/65 65/92/66 70/93/67 69/94/68
f 65/92/66 66/95/69 71/96/70 70/93/67
f 66/95/69 67/97/71 72/164/72 71/96/70
f 67/165/71 68/99/73 73/100/74 72/98/72
f 68/99/73 64/91/65 69/94/68 73/100/74
f 69/94/68 70/93/67 75/101/75 74/102/76
f 70/93/67 71/96/70 76/103/77 75/101/75
f 71/96/70 72/164/72 77/163/78 76/103/77
f 72/98/72 73/100/74 78/105/79 77/104/78
f 73/100/74 69/94/68 74/102/76 78/105/79
f 74/102/76 75/101/75 80/86/60 79/85/59
f 75/101/75 76/103/77 82/88/62 80/86/60
f 76/103/77 77/163/78 83/162/63 82/88/62
f 77/104/78 78/105/79 84/90/64 83/89/63
f 78/105/79 74/102/76 79/85/59 84/90/64
f 61/107/80 66/110/69 87/111/81 86/108/82
f 66/110/69 65/112/66 88/113/83 87/111/81
f 65/112/66 60/106/84 85/109/85 88/113/83
f 59/115/86 64/118/65 91/119/87 90/116/88
f 64/118/65 68/120/73 92/121/89 91/119/87
f 68/120/73 63/114/90 89/117/91 92/121/89
f 60/106/84 65/112/66 95/125/92 94/123/93
f 65/112/66 64/126/65 96/127/94 95/125/92
f 64/126/65 59/122/86 93/124/95 96/127/94
f 63/114/90 68/120/73 99/131/96 98/129/97
f 68/120/73 67/132/71 100/133/98 99/131/96
f 67/132/71 62/128/99 97/130/100 100/133/98
f 62/128/99 67/132/71 103/136/101 102/134/102
f 67/132/71 66/110/69 104/137/103 103/136/101
f 66/110/69 61/107/80 101/135/104 104/137/103
f 94/123/93 95/125/92 107/140/105 106/138/106
f 95/125/92 96/127/94 108/141/107 107/140/105
f 96/127/94 93/124/95 105/139/108 108/141/107
f 86/108/82 87/111/81 111/144/109 110/142/110
f 87/111/81 88/113/83 112/145/111 111/144/109
f 88/113/83 85/109/85 109/143/112 112/145/111
f 102/134/102 103/136/101 115/148/113 114/146/114
f 103/136/101 104/137/103 116/149/115 115/148/113
f 104/137/103 101/135/104 113/147/116 116/149/115
f 98/129/97 99/131/96 119/152/117 118/150/118
f 99/131/96 100/133/98 120/153/119 119/152/117
f 100/133/98 97/130/100 117/151/120 120/153/119
f 90/116/88 91/119/87 123/156/121 122/154/122
f 91/119/87 92/121/89 124/157/123 123/156/121
f 92/121/89 89/117/91 121/155/124 124/157/123
f 106/138/106 107/140/105 125/80/125
f 107/140/105 108/141/107 125/80/125
f 108/141/107 105/139/108 125/80/125
f 110/142/110 111/144/109 126/81/126
f 111/144/109 112/145/111 126/81/126
f 112/145/111 109/143/112 126/81/126
f 114/146/114 115/148/113 127/82/127
f 115/148/113 116/149/115 127/82/127
f 116/149/115 113/147/116 127/82/127
f 118/150/118 119/152/117 128/83/128
f 119/152/117 120/153/119 128/83/128
f 120/153/119 117/151/120 128/83/128
f 122/154/122 123/156/121 129/84/129
f 123/156/121 124/157/123 129/84/129
f 124/157/123 121/155/124 129/84/129
