# This file uses centimeters as units for non-parametric coordinates.

mtllib Torch.mtl
g default
v -0.000000 -0.018556 0.013899
v 0.411660 0.981444 0.013899
v 0.001604 0.981444 -0.411660
v -0.411660 0.981444 0.013899
v 0.532681 2.343024 0.013899
v 0.002075 2.343024 -0.532681
v -0.532681 2.343024 0.013899
v 0.799559 2.596127 0.013900
v 0.003115 2.596127 -0.799559
v -0.799559 2.596127 0.013900
v 0.481161 2.596127 0.013899
v 0.001875 2.596127 -0.481161
v -0.481161 2.596127 0.013899
v 0.000625 2.260973 0.013898
vt 0.500000 0.000000
vt 0.625000 0.250000
vt 0.375000 0.250000
vt 0.875000 0.250000
vt 0.000000 0.000000
vt 1.000000 0.000000
vt 1.000000 1.000000
vt 0.000000 1.000000
vt 0.000000 0.000000
vt 1.000000 0.000000
vt 1.000000 1.000000
vt 0.000000 1.000000
vt 0.000000 0.000000
vt 1.000000 0.000000
vt 1.000000 1.000000
vt 0.000000 1.000000
vt 0.000000 0.000000
vt 1.000000 0.000000
vt 1.000000 1.000000
vt 0.000000 1.000000
vt 0.000000 0.000000
vt 1.000000 0.000000
vt 1.000000 1.000000
vt 0.000000 1.000000
vt 0.000000 0.000000
vt 1.000000 0.000000
vt 1.000000 1.000000
vt 0.000000 1.000000
vt 0.000000 0.000000
vt 1.000000 0.000000
vt 0.500000 1.000000
vt 0.000000 0.000000
vt 1.000000 0.000000
vt 0.500000 1.000000
vn 0.690406 -0.284212 -0.665254
vn 0.690406 -0.284212 -0.665254
vn 0.690406 -0.284212 -0.665254
vn -0.688019 -0.283230 -0.668140
vn -0.688019 -0.283230 -0.668140
vn -0.688019 -0.283230 -0.668140
vn 0.717226 -0.062841 -0.694002
vn 0.717226 -0.062841 -0.694002
vn 0.717226 -0.062841 -0.694002
vn 0.717226 -0.062841 -0.694002
vn -0.714528 -0.062598 -0.696800
vn -0.714528 -0.062598 -0.696800
vn -0.714528 -0.062598 -0.696800
vn -0.714528 -0.062598 -0.696800
vn 0.573410 -0.598464 -0.559501
vn 0.573410 -0.598464 -0.559501
vn 0.573410 -0.598464 -0.559501
vn 0.573410 -0.598464 -0.559501
vn -0.572022 -0.596967 -0.562513
vn -0.572022 -0.596967 -0.562513
vn -0.572022 -0.596967 -0.562513
vn -0.572022 -0.596967 -0.562513
vn 0.000000 1.000000 0.000000
vn 0.000000 1.000000 0.000000
vn 0.000000 1.000000 0.000000
vn 0.000000 1.000000 0.000000
vn 0.000000 1.000000 -0.000001
vn 0.000000 1.000000 -0.000001
vn 0.000000 1.000000 -0.000001
vn 0.000000 1.000000 -0.000001
vn -0.500438 0.717516 0.484493
vn -0.500438 0.717516 0.484493
vn -0.500438 0.717515 0.484493
vn 0.498852 0.717102 0.486736
vn 0.498852 0.717102 0.486736
vn 0.498852 0.717102 0.486736
s off
g Torch:Torch
usemtl Elephant_Checkpoint:initialShadingGroup
f 1/1/1 3/2/2 2/3/3
f 1/1/4 4/4/5 3/2/6
f 2/5/7 3/6/8 6/7/9 5/8/10
f 3/9/11 4/10/12 7/11/13 6/12/14
f 5/13/15 6/14/16 9/15/17 8/16/18
f 6/17/19 7/18/20 10/19/21 9/20/22
f 8/21/23 9/22/24 12/23/25 11/24/26
f 9/25/27 10/26/28 13/27/29 12/28/30
f 11/29/31 12/30/32 14/31/33
f 12/32/34 13/33/35 14/34/36
